<?xml version="1.0" standalone="no"?>
<!DOCTYPE svg PUBLIC "-//W3C//DTD SVG 1.1//EN" "http://www.w3.org/Graphics/SVG/1.1/DTD/svg11.dtd" >
<svg xmlns="http://www.w3.org/2000/svg">
<metadata></metadata>
<defs>
<font id="powerregular" horiz-adv-x="1139" >
<font-face units-per-em="2048" ascent="1638" descent="-410" />
<missing-glyph horiz-adv-x="569" />
<glyph horiz-adv-x="2048" />
<glyph horiz-adv-x="2048" />
<glyph unicode="&#xd;" horiz-adv-x="569" />
<glyph unicode=" "  horiz-adv-x="569" />
<glyph unicode="&#x09;" horiz-adv-x="569" />
<glyph unicode="&#xa0;" horiz-adv-x="569" />
<glyph unicode="!" horiz-adv-x="569" />
<glyph unicode="&#x22;" horiz-adv-x="727" />
<glyph unicode="#" />
<glyph unicode="$" />
<glyph unicode="%" horiz-adv-x="1821" />
<glyph unicode="&#x26;" horiz-adv-x="1366" />
<glyph unicode="'" horiz-adv-x="391" />
<glyph unicode="(" horiz-adv-x="682" />
<glyph unicode=")" horiz-adv-x="682" />
<glyph unicode="*" horiz-adv-x="797" />
<glyph unicode="+" horiz-adv-x="1196" />
<glyph unicode="," horiz-adv-x="569" />
<glyph unicode="-" horiz-adv-x="682" />
<glyph unicode="." horiz-adv-x="569" />
<glyph unicode="/" horiz-adv-x="569" />
<glyph unicode="0" horiz-adv-x="1609" d="M0 796v36q0 392 376 660q199 116 420 116h24q407 0 664 -376q124 -204 124 -444q0 -411 -396 -676q-206 -112 -416 -112q-392 0 -664 360q-132 191 -132 436zM20 808q0 -106 44 -220h4v4q-28 93 -28 212q0 468 456 704q148 60 272 60h64q268 0 496 -204v4 q-206 224 -524 224q-399 0 -656 -348q-128 -197 -128 -432v-4zM68 576h4v8h-4v-8zM72 564h4v8h-4v-8zM132 816q0 -390 356 -600q144 -76 296 -76h28q389 0 604 396q52 128 52 228v44q0 376 -336 580q-154 84 -320 84h-8q-338 0 -544 -280q-128 -173 -128 -376zM192 808 q0 333 312 528q133 76 316 76q275 0 480 -252q108 -163 108 -356v-20q0 -273 -252 -472q-161 -112 -356 -112h-20q-328 0 -528 340q-60 136 -60 268zM212 816q0 -71 36 -164h4v4q-20 67 -20 144q0 320 296 504q121 68 264 68h28q195 0 372 -148q-129 168 -380 168 q-246 0 -420 -164q-180 -174 -180 -412zM364 256q190 -156 424 -156h24q367 0 600 344q96 172 96 352v28q0 93 -32 204h-4v-4q20 -110 20 -216q0 -380 -344 -596q-161 -92 -356 -92q-201 0 -424 136h-4zM428 644l20 -4q20 0 84 80l4 4v4l-4 92q0 177 196 248l60 8l96 -4 q84 65 84 92v8h-4l-88 -80l-72 8q-182 0 -272 -180q-20 -50 -20 -104l8 -80q-50 -67 -92 -84v-8zM432 792l12 -104h4l48 48l-4 80q0 179 176 272q66 32 140 32l60 -8h4l48 48q-64 24 -120 24q-203 0 -320 -184q-48 -87 -48 -172v-36zM484 532q28 -44 48 -44l600 608v4 l-40 32zM492 464q0 -10 32 -16q39 0 124 104q425 411 528 532v20q-156 -145 -616 -616q-18 -24 -68 -24zM648 424q70 -32 148 -32q222 0 360 200q60 102 60 212q0 39 -16 124h-4v-16l4 -60q0 -307 -252 -412q-44 -20 -140 -28q-92 8 -140 24q-20 -5 -20 -12zM692 448 q61 -16 120 -16q217 0 332 224q32 72 32 140v16q0 49 -16 112h-4q-52 -40 -52 -56l8 -56v-20q0 -203 -220 -288l-80 -12l-68 12h-16q-36 -26 -36 -56zM1192 932h4v8h-4v-8z" />
<glyph unicode="1" horiz-adv-x="1605" d="M0 796v32q0 357 328 628q209 148 460 148h40q388 0 660 -372q116 -197 116 -392v-76q0 -321 -292 -584q-220 -180 -512 -180q-441 0 -700 408q-100 179 -100 388zM20 792q0 -105 40 -204h4v4q-24 75 -24 188v8q0 447 388 684q178 92 344 92h56q275 0 512 -216 q-211 236 -504 236h-56q-334 0 -588 -284q-172 -219 -172 -500v-8zM136 772q0 -369 388 -580q144 -56 268 -56h28q344 0 572 348q76 148 76 292v32q0 392 -384 604q-153 60 -268 60q-336 0 -544 -260q-136 -186 -136 -400v-40zM196 800v12q0 351 336 536q131 60 264 60h20 q354 0 544 -360q48 -108 48 -220v-60q0 -254 -248 -456q-159 -116 -360 -116q-328 0 -532 312q-72 130 -72 292zM216 800q0 -85 36 -168h4v4q-20 61 -20 148v20q0 339 324 512q126 56 252 56q179 0 352 -128v4q-122 144 -360 144q-333 0 -528 -316q-60 -137 -60 -244v-32z M324 280q217 -188 488 -188h40q258 0 504 272q152 193 152 432v36q0 72 -24 168h-4v-4l8 -116v-68q0 -475 -496 -680q-78 -20 -156 -20q-271 0 -512 172v-4zM644 1084l36 -8h56l140 -4q43 0 48 40l-4 80q-16 -6 -16 -12v-60q0 -21 -12 -24h-36l-172 4l-40 -12v-4zM672 1116 h212v56l-8 8h-204v-64zM784 396l52 -8h36q44 0 44 56v280l-4 268l-4 4l-16 -4l4 -268v-64l-4 -248l-4 -4h-4l-60 4q-40 -5 -40 -16zM812 428h60l4 48v508h-56l-8 -8v-548z" />
<glyph unicode="2" horiz-adv-x="1609" d="M0 804v28q0 371 360 648q203 124 436 124h36q374 0 640 -352q136 -206 136 -464q0 -422 -416 -692q-184 -96 -388 -96q-435 0 -704 404q-100 190 -100 400zM20 812q0 -110 40 -220h4v8q-24 109 -24 204v12q0 287 212 520q230 228 528 228h52q245 0 476 -184v4 q-186 204 -516 204q-408 0 -664 -384q-108 -180 -108 -388v-4zM136 788q0 -340 320 -556q165 -96 348 -96q358 0 572 320q96 159 96 344q0 377 -344 592q-152 76 -300 76h-40q-371 0 -576 -352q-76 -147 -76 -288v-40zM196 800v24q0 294 296 504q153 80 304 80h24 q280 0 476 -248q116 -170 116 -368q0 -320 -316 -524q-140 -72 -296 -72q-318 0 -524 304q-80 140 -80 300zM212 804q0 -71 44 -172h4v4q-24 87 -24 164v20q0 282 272 468q143 84 288 84q211 0 368 -128h4q-117 148 -372 148q-318 0 -512 -312q-72 -149 -72 -276zM260 620h4 v8h-4v-8zM328 280q207 -184 476 -184q427 0 648 416q60 150 60 292q0 88 -32 216h-4v-4q16 -89 16 -176q0 -512 -488 -696q-118 -28 -204 -28q-234 0 -472 168v-4zM500 396l60 -8h424l76 -4q60 0 60 48v4l-4 68h-8l-8 -8v-72l-12 -12h-552q-31 0 -36 -16zM500 740l32 -8h420 l236 -4q48 5 48 48l-8 72l-16 -12v-72l-4 -4v-4l-260 -4h-352l-64 4q-32 -8 -32 -16zM504 1080l32 -8l220 4h8q144 0 216 -56q-29 80 -228 80l-156 -8l-64 4l-28 -8v-8zM528 428h544l8 8v56l-52 4l-172 -4h-52l-208 4q-8 18 -8 52v92h-60v-212zM528 772h664v64h-664v-64z M528 1116l24 -4l124 4h104q204 0 292 -152l60 4v4q-105 208 -324 208l-280 -4v-60zM608 612l4 -88h4l12 12v112l-8 8zM1044 944q0 -16 68 -20q53 0 68 28v16q0 -19 -136 -24z" />
<glyph unicode="3" horiz-adv-x="1609" d="M0 792v40q0 413 412 676q185 96 404 96h28q318 0 592 -300q172 -236 172 -528q0 -370 -356 -640q-210 -136 -468 -136q-434 0 -696 428q-88 173 -88 364zM20 808q0 -125 48 -240h4v4q-32 92 -32 216v16q0 419 384 664q186 100 380 100q278 0 516 -200h4 q-211 220 -524 220q-371 0 -640 -332q-140 -197 -140 -448zM132 820q0 -434 412 -636q134 -48 260 -48q335 0 560 304q108 163 108 352q0 395 -372 612q-145 64 -272 64h-36q-352 0 -568 -328q-92 -160 -92 -320zM196 788v40q0 327 324 512q133 68 288 68h28q257 0 464 -252 q108 -168 108 -376q0 -309 -304 -508q-152 -76 -308 -76q-340 0 -540 332q-60 131 -60 260zM212 816q0 -73 40 -176h4v4q-20 79 -20 136v16l-4 16l4 16v20q0 221 228 412q149 108 320 108h44q187 0 356 -144q-133 168 -376 168q-320 0 -512 -280q-84 -148 -84 -296zM324 280 q219 -184 444 -184h44q365 0 596 340q104 192 104 372q0 71 -32 200h-4v-4l8 -104v-36l4 -32q0 -493 -460 -680q-102 -36 -216 -36q-251 0 -488 168v-4zM500 400q0 -12 44 -12h28l180 -4q311 0 420 240l8 32h-4q-16 -7 -64 -100q-113 -148 -368 -148h-92l-116 4zM500 1088 q0 -11 44 -16l196 8q160 0 240 -64v4q-36 80 -236 80q-102 0 -148 -8l-24 4h-36zM524 428h244q270 0 368 212h-64q-111 -152 -292 -152l-256 4v-64zM524 1116h24l160 4q282 0 344 -136q9 -20 40 -20q40 6 40 12q-53 104 -160 164q-86 40 -256 40h-52l-140 -4v-60zM792 740 l48 -8h400q44 0 44 44l-8 72h-4l-12 -12v-72l-8 -8l-192 -4l-232 4l-36 -12v-4zM820 772h420v64h-420v-64zM1040 944q0 -16 72 -20q68 5 68 40l-4 4h-4q0 -15 -60 -20h-72v-4z" />
<glyph unicode="4" horiz-adv-x="1609" d="M0 788v32q0 367 324 632q214 152 476 152h32q330 0 596 -296q180 -224 180 -520q0 -419 -420 -692q-179 -96 -380 -96h-12q-422 0 -696 404q-100 182 -100 384zM16 828q0 -112 52 -256h4v4q-36 122 -36 232q0 387 364 648q194 112 404 112q284 0 524 -208v4 q-215 224 -524 224q-372 0 -628 -312q-160 -231 -160 -448zM72 560h4v8h-4v-8zM132 812q0 -419 412 -624q131 -52 260 -52q419 0 620 420q48 125 48 244q0 360 -328 576q-156 92 -320 92h-40q-383 0 -592 -392q-60 -142 -60 -264zM196 792v32q0 353 372 540q121 44 236 44 h28q250 0 456 -232q124 -181 124 -388q0 -309 -308 -516q-141 -76 -300 -76h-4q-320 0 -528 304q-76 138 -76 292zM216 812q0 -98 40 -184h4v4q-24 76 -24 144v52q0 258 252 448q149 92 288 92h60q182 0 356 -148v4q-150 168 -384 168q-294 0 -484 -244q-108 -147 -108 -336 zM320 288q212 -192 488 -192h4q423 0 644 432q52 127 52 248v52q0 72 -24 168h-4l12 -156q0 -453 -412 -672q-134 -52 -260 -52h-12q-249 0 -488 176v-4zM528 1076q0 -102 92 -232q109 -102 220 -112l44 -8v64h-4q-128 0 -236 128q-56 107 -56 168l-4 -4l-28 4h-8 q-20 -1 -20 -8zM612 1080l24 -60h4l-16 76q-6 0 -12 -16zM620 792q130 -108 284 -108q20 25 20 56l-8 60q-16 -4 -16 -20l4 -48q-4 -24 -12 -24h-8q-94 0 -264 84zM992 396l60 -8h24q40 0 40 32v676l-20 -8l4 -432l-4 -224q-5 -20 -12 -20h-60q-29 0 -32 -12v-4zM1016 428 h64v656h-56l-8 -8v-648z" />
<glyph unicode="5" horiz-adv-x="1605" d="M0 788v44q0 349 340 632q210 140 448 140h32q436 0 692 -416q92 -174 92 -348v-72q0 -356 -336 -620q-210 -148 -472 -148h-4q-417 0 -680 388q-112 194 -112 400zM20 804q0 -98 40 -212h4v4q-24 90 -24 180v16q0 425 368 668q179 104 376 104h32q286 0 516 -204v4 q-211 224 -524 224q-436 0 -696 -404q-92 -182 -92 -376v-4zM136 784q0 -377 388 -592q140 -56 268 -56h28q313 0 540 296q112 161 112 368q0 407 -392 612q-132 56 -248 56h-44q-345 0 -568 -332q-84 -154 -84 -320v-32zM196 800v16q0 312 296 512q155 80 304 80h28 q302 0 508 -300q80 -157 80 -312q0 -275 -240 -476q-164 -124 -372 -124h-12q-307 0 -512 304q-80 132 -80 300zM212 800q0 -65 36 -152h4v4q-16 62 -16 128v24q0 373 384 536q100 28 164 28h48q180 0 356 -144q-140 168 -384 168q-329 0 -520 -304q-72 -146 -72 -288z M332 276q209 -180 464 -180h16q365 0 604 348q92 169 92 344v44q0 80 -28 184h-4v-4q12 -73 16 -172q0 -454 -404 -664q-143 -60 -272 -60h-28q-218 0 -456 164v-4zM500 396l12 -4l236 -4h4q310 0 420 232l8 36q-12 0 -68 -100q-119 -148 -344 -148h-96q-84 0 -132 8 l-40 -12v-8zM500 740l28 -12l60 4h324l276 -4q44 0 44 52h4l-8 68l-16 -4v-84l-8 -8h-672q-29 0 -32 -12zM500 936q40 -12 76 -12q56 0 56 44l-8 92l12 16h444q44 0 44 44l-8 72h-4l-12 -12v-72l-4 -4v-4l-156 -4l-196 4l-132 -4l-4 -4v-120q0 -21 -12 -24h-64 q-29 0 -32 -12zM524 432l228 -4q284 0 388 212h-72q-99 -152 -296 -152l-156 4h-92v-60zM524 772h672v4l-4 60h-664l-4 -20v-44zM524 1048l4 -80h60v92q0 52 20 52l76 4h396v64h-552l-4 -88v-44zM1472 1020h4v8h-4v-8z" />
<glyph unicode="6" horiz-adv-x="1605" d="M0 792v40q0 365 336 624q198 148 480 148h28q305 0 572 -276q188 -225 188 -516q0 -528 -520 -764q-148 -48 -292 -48q-448 0 -704 432q-88 164 -88 360zM16 820q0 -101 44 -232h4v4q-24 93 -24 196v8q0 483 472 716q160 56 292 56q289 0 524 -208v4q-206 220 -496 220 h-48q-223 0 -432 -136q-336 -263 -336 -628zM132 800q0 -404 412 -616q129 -48 248 -48q425 0 624 404q52 118 52 240v48q0 333 -324 552q-167 88 -320 88h-28q-370 0 -580 -340q-84 -151 -84 -328zM192 812q0 353 360 548q134 48 256 48h12q274 0 480 -248 q108 -167 108 -348q0 -433 -436 -592q-90 -24 -184 -24q-324 0 -528 328q-68 128 -68 288zM212 812q0 -73 36 -164h4q-20 83 -20 156q0 316 300 500q119 64 252 64h32q201 0 376 -148v4q-148 168 -388 168q-350 0 -532 -328q-60 -133 -60 -252zM328 276q215 -180 452 -180 h24q344 0 568 288q136 181 136 432v4q0 89 -28 196h-4v-4q12 -71 12 -152v-36q0 -448 -408 -648q-137 -60 -288 -60q-229 0 -460 164h-4v-4zM432 740l36 -8h704q44 0 44 36v4l-8 76l-12 -4v-64l-8 -24l-448 -4h-152l-124 4l-32 -12v-4zM432 936l32 -8h72q28 0 84 80 q79 68 224 68h4l236 -4q36 7 36 48l-8 72l-16 -16v-72l-8 -8h-272q-178 0 -260 -136l-16 -12h-20l-64 4q-24 -8 -24 -16zM460 772h716v64h-716v-64zM468 640q110 -212 328 -212h12q219 0 324 212h-64q-104 -148 -252 -148h-28q-151 0 -260 152zM468 968h68q98 148 276 148 h268v60l-288 4q-208 0 -324 -212zM524 492q142 -104 240 -104h52q232 0 356 236l8 32h-4q-11 0 -80 -116q-117 -132 -296 -132q-134 0 -276 92v-8z" />
<glyph unicode="7" horiz-adv-x="1605" d="M0 800v32q0 387 384 660q195 112 404 112h44q405 0 664 -392q108 -183 108 -372v-72q0 -371 -352 -632q-200 -136 -464 -136q-398 0 -668 376q-120 192 -120 424zM20 816q0 -110 40 -220h4v4q-24 80 -24 188v8q0 470 456 708q157 60 296 60h24q277 0 504 -192v4 q-205 212 -512 212q-420 0 -684 -384q-104 -177 -104 -388zM64 584h4v8h-4v-8zM136 788q0 -345 336 -564q147 -88 324 -88h16q381 0 600 384q60 135 60 276q0 392 -360 600q-156 76 -296 76q-388 0 -604 -352q-76 -143 -76 -304v-28zM196 804v16q0 301 292 504 q156 84 308 84h28q253 0 452 -220q136 -177 136 -396q0 -316 -304 -516q-144 -80 -316 -80q-285 0 -488 260q-108 153 -108 348zM216 800q0 -67 36 -160h4v4q-20 64 -20 152v4q0 354 336 520q109 48 220 48h44q169 0 344 -136v4q-127 152 -364 152h-4q-351 0 -536 -320 q-60 -122 -60 -232v-36zM352 260q198 -164 432 -164h28q347 0 588 320q112 190 112 388q-8 133 -32 208h-4v-8q16 -117 16 -196q0 -418 -404 -636q-142 -56 -272 -56h-28q-203 0 -436 148v-4zM500 1084l52 -8h412l96 -4q60 0 60 44v8l-4 68h-4l-12 -12v-76l-8 -8h-480l-84 4 q-28 -9 -28 -16zM528 1116h552v64h-544l-8 -8v-56zM992 396l52 -8h36q40 0 40 48l4 12l-4 28v524q-18 -8 -20 -16v-404l-4 -168l-4 -4h-4l-60 4l-36 -8v-8zM1016 428h64v556h-60l-4 -20v-536zM1472 1016h4v8h-4v-8z" />
<glyph unicode="8" horiz-adv-x="1609" d="M0 796v28q0 434 420 688q186 92 392 92h32q333 0 608 -324q156 -220 156 -496q0 -423 -412 -684q-194 -100 -400 -100q-452 0 -708 432q-88 171 -88 364zM16 820q0 -93 48 -236h4v4q-28 90 -28 216q0 441 412 676q176 88 352 88q275 0 516 -200v4q-211 216 -512 216 q-390 0 -644 -328q-148 -212 -148 -440zM136 792q0 -406 420 -612q131 -44 252 -44q396 0 608 396q56 130 56 264q0 334 -288 556q-173 116 -364 116h-20q-264 0 -460 -184q-204 -197 -204 -452v-40zM196 800v24q0 320 316 516q145 68 292 68h4q335 0 524 -308 q76 -143 76 -288v-56q0 -246 -256 -448q-153 -112 -364 -112q-266 0 -472 240q-120 156 -120 364zM216 796q0 -68 40 -164h4v4q-24 75 -24 156v48q0 262 264 444q135 84 304 84h8q197 0 364 -136h4q-142 160 -372 160q-310 0 -512 -280q-80 -147 -80 -268v-48zM324 280 q215 -184 480 -184q399 0 632 380q72 156 72 324q0 89 -28 208h-4v-4q12 -74 12 -132v-80q0 -337 -292 -556q-177 -120 -396 -120q-225 0 -476 168v-4zM404 836l48 -8h8q40 3 40 20l-60 4q-31 0 -36 -16zM432 732q44 -159 152 -244q98 -60 208 -60h4q269 0 364 260l12 48 h-60l-4 -4q-83 -240 -276 -240h-60q-195 0 -276 244h-64v-4zM432 868h64q3 72 104 180q85 68 200 68h12q215 0 296 -236q0 -12 8 -12h56v4q-9 73 -80 180q-122 128 -288 128q-290 0 -372 -312zM516 748l24 -20l100 4h400q44 6 44 20h-4l-352 4l-212 -4v-4zM516 864h4 q16 1 44 76q78 136 244 136q96 0 176 -60v4q-54 76 -160 76h-44q-186 0 -264 -224v-8zM524 492q112 -104 280 -104q291 0 400 304l8 56l-4 4h-4l-40 -116q-118 -228 -368 -228q-125 0 -272 88v-4zM524 772h556v64h-552l-4 -20v-44zM1096 816l4 -48h8l8 8v44l8 8h36 q52 3 52 16v20l-8 52h-4q0 -64 -12 -64h-60q-28 0 -28 -16z" />
<glyph unicode="9" horiz-adv-x="1609" d="M0 784v44q0 352 316 616q217 160 488 160h28q335 0 596 -292q180 -228 180 -520q0 -483 -500 -736q-152 -56 -300 -56h-12q-408 0 -680 380q-116 191 -116 404zM20 784q0 -93 36 -180h4v4q-20 98 -20 192q0 436 408 684q170 80 332 80h64q255 0 496 -212v4 q-215 232 -528 232q-431 0 -680 -380q-112 -188 -112 -380v-44zM60 592h4v8h-4v-8zM136 780q0 -367 388 -584q140 -60 276 -60h16q371 0 584 372q72 142 72 300q0 357 -332 572q-158 88 -316 88h-32q-371 0 -584 -356q-72 -153 -72 -304v-28zM196 788v32q0 318 312 516 q148 72 296 72h28q273 0 484 -276q96 -161 96 -336q0 -308 -304 -520q-137 -80 -300 -80h-4q-324 0 -524 296q-84 138 -84 296zM216 796q0 -63 28 -144h4v8q-12 61 -12 116v20q0 351 340 532q111 40 208 40h32q205 0 380 -152v4q-157 172 -388 172q-347 0 -536 -332 q-56 -129 -56 -264zM332 276q212 -180 456 -180h28q385 0 616 380q76 147 76 332q0 99 -24 192h-4v-4l12 -220q0 -265 -248 -500q-199 -160 -440 -160q-236 0 -472 164v-4zM400 740q16 -8 44 -8h688q52 0 52 36l4 24l-4 4v28l-4 28q-16 0 -16 -48v-40l-4 -4v-4l-440 -4h-172 l-116 4q-32 -8 -32 -16zM428 772h716v64h-716v-64zM436 932l40 -4h60q21 0 96 88q78 60 172 60q99 0 184 -68q-57 88 -168 88h-36q-133 0 -240 -148h-28l-56 4q-24 -8 -24 -16v-4zM472 968h60q115 148 264 148h12q159 0 260 -144l16 -4h52v4q-117 208 -328 208h-8 q-223 0 -328 -212zM500 396l52 -8h216q251 0 364 168q15 0 52 100h-4q-7 0 -96 -132q-110 -116 -296 -116l-256 4q-32 -7 -32 -16zM528 432l288 -4q209 0 320 212h-60q-107 -120 -176 -136q-51 -12 -96 -12h-56l-220 4v-64zM1048 936l52 -8h36q31 0 48 20v20h-8 q0 -20 -52 -20l-36 4l-40 -8v-8zM1476 1004h4v12h-4v-12z" />
<glyph unicode=":" horiz-adv-x="569" />
<glyph unicode=";" horiz-adv-x="569" />
<glyph unicode="&#x3c;" horiz-adv-x="1196" />
<glyph unicode="=" horiz-adv-x="1196" />
<glyph unicode="&#x3e;" horiz-adv-x="1196" />
<glyph unicode="?" />
<glyph unicode="@" horiz-adv-x="2079" />
<glyph unicode="A" horiz-adv-x="1605" d="M0 772v52q0 384 356 652q211 128 432 128h32q395 0 660 -364q124 -195 124 -416v-16q0 -334 -232 -572q-232 -236 -580 -236q-418 0 -684 392q-108 179 -108 380zM20 800q0 -112 40 -208h4v4q-24 109 -24 192v32q0 407 384 652q184 92 364 92h24q278 0 504 -192v4 q-205 212 -512 212q-405 0 -664 -356q-120 -195 -120 -420v-12zM132 808q0 -409 396 -616q132 -56 280 -56q341 0 564 316q96 159 96 336v44q0 341 -352 564q-152 72 -288 72h-36q-415 0 -616 -420q-44 -118 -44 -224v-16zM196 784v56q0 259 260 464q156 104 340 104h28 q344 0 536 -356q48 -112 48 -232v-16q0 -388 -396 -572q-104 -36 -208 -36q-360 0 -560 356q-48 122 -48 232zM216 812q0 -98 40 -188h4v4q-24 80 -24 144v60q0 242 232 432q154 104 332 104h12q210 0 376 -140v4q-144 160 -400 160q-275 0 -468 -248q-104 -143 -104 -332z M312 292q214 -196 500 -196q369 0 592 336q104 171 104 392q-7 123 -24 180h-4v-4l8 -124v-28q0 -512 -456 -692q-119 -40 -228 -40q-244 0 -492 180v-4zM404 492l60 -8h20q48 0 48 52l-4 260q0 195 188 268q39 12 72 12h28q79 0 168 -64v4q-42 80 -172 80h-32 q-165 0 -252 -180q-20 -62 -20 -108l4 -240q-3 -60 -12 -60h-72q-24 -2 -24 -12v-4zM424 736l4 -212h64l-4 260q0 249 228 324l76 8h20q213 0 292 -228l12 -116l-4 -172v-76h56l8 8v240q0 325 -304 404l-68 4q-260 0 -360 -260q-20 -94 -20 -184zM596 696q0 -11 40 -16h316 q68 0 68 40v8q0 72 -12 72l-8 -12v-60q0 -21 -12 -24h-356zM624 720h348l8 8v52l-8 8h-340l-8 -8v-60zM1088 496q32 -12 68 -12h16q44 0 44 44v264q0 72 -16 136h-4v-196l-4 -220l-4 -4h-68q-29 0 -32 -12zM1476 1008h4v8h-4v-8z" />
<glyph unicode="B" horiz-adv-x="1609" d="M0 780v44q0 391 360 652q196 128 440 128h32q349 0 612 -312q164 -227 164 -508q0 -406 -400 -676q-199 -108 -420 -108q-425 0 -692 412q-96 173 -96 368zM20 780q0 -86 40 -188h4q-24 120 -28 208q0 369 304 612q217 156 472 156q269 0 512 -200v4q-212 216 -520 216 q-389 0 -644 -332q-140 -217 -140 -444v-32zM136 800q0 -400 396 -608q148 -56 280 -56q371 0 588 368q72 144 72 300q0 374 -348 584q-153 80 -284 80h-52q-333 0 -548 -300q-104 -165 -104 -368zM196 804q0 343 340 548q134 56 264 56h28q307 0 500 -300q80 -140 80 -292 v-52q0 -241 -248 -452q-156 -112 -328 -112h-64q-225 0 -428 208q-144 165 -144 396zM216 812q0 -86 40 -184h4v4q-16 35 -24 160q0 328 296 508q134 72 276 72q194 0 360 -128v4q-116 144 -360 144q-351 0 -532 -332q-60 -133 -60 -248zM324 284q210 -188 480 -188h8 q425 0 648 440q52 133 52 256q0 78 -28 204h-4v-8l8 -100v-80q0 -377 -340 -600q-155 -92 -328 -92h-8q-254 0 -488 172v-4zM404 732q15 -12 36 -12h592q56 9 56 24h-672zM428 768l8 -8h644v68h-648l-4 -20v-40zM500 388l56 -8h16l212 -4q215 0 352 160q76 126 76 208 q-18 0 -40 -100q-118 -244 -352 -244h-20l-276 4q-24 -8 -24 -16zM500 928q26 -12 56 -12h12q64 0 64 36l-4 96v8q0 8 12 8l172 4q82 0 164 -56h4q-28 72 -144 72l-44 4l-180 -4l-4 -28v-108l-8 -8h-68q-29 0 -32 -12zM528 420l4 4h4l240 -8q275 0 376 236l20 76h-56 l-36 -84q-99 -164 -276 -164l-172 4h-28q-20 10 -20 32l8 108l-4 4h-60v-208zM528 960h60v100q0 44 12 44l208 4q230 0 300 -248h64v4q-15 93 -88 188q-128 120 -296 120l-248 -4h-12v-208zM608 516h8l12 12v108l-4 4v4q-16 -4 -16 -24v-104zM1100 756h4l16 16v40l8 8h32 l16 -4q40 5 40 36v4l-12 52h-4q0 -68 -12 -68h-84l-4 -20v-64zM1476 1000h4v8h-4v-8z" />
<glyph unicode="C" horiz-adv-x="1609" d="M0 776v48q0 358 324 628q220 152 476 152h28q367 0 636 -336q144 -229 144 -484q0 -398 -400 -680q-182 -104 -384 -104q-504 0 -756 468q-68 151 -68 308zM20 796q0 -101 40 -204h4v4q-24 119 -24 196v36q0 330 280 568q230 172 492 172q276 0 512 -204v4 q-209 220 -512 220q-387 0 -648 -324q-144 -211 -144 -440v-28zM132 812q0 -430 424 -632q129 -44 252 -44q341 0 564 316q96 152 96 324v52q0 339 -324 548q-157 92 -312 92h-44q-337 0 -556 -312q-100 -169 -100 -344zM196 784v44q0 300 292 496q155 84 308 84h24 q322 0 516 -312q72 -142 72 -284v-48q0 -253 -260 -464q-152 -104 -352 -104q-291 0 -488 252q-112 154 -112 336zM212 812q0 -86 44 -180h4v4q-20 49 -28 168q0 360 372 532q108 32 200 32q209 0 376 -132v4q-148 148 -364 148h-20q-287 0 -476 -248q-108 -163 -108 -328z M316 288q226 -192 472 -192h32q279 0 500 224q188 209 188 472v36q0 86 -32 196h-4v-4q20 -108 20 -212q0 -385 -348 -604q-161 -88 -344 -88q-235 0 -484 176v-4zM444 772q0 -221 228 -332q80 -24 132 -24h20q218 0 324 208h-68q-99 -148 -260 -148q-217 0 -304 216 q-12 50 -12 88v20q0 211 224 292l88 12q160 0 272 -152h12q48 0 48 8q-120 204 -308 204h-48q-213 0 -324 -236q-24 -70 -24 -112v-44zM524 792q0 -39 28 -88h4v4q-12 31 -12 84q0 196 208 264l40 4h28q93 0 180 -60q-58 84 -180 84q-192 0 -276 -184q-20 -45 -20 -104v-4z M540 480q120 -108 276 -108q253 0 372 244l4 24h-4q-8 0 -60 -92q-126 -152 -304 -152h-24q-114 0 -260 88v-4zM1056 924q26 -12 56 -12h28q39 0 56 28v12h-4q-18 -20 -132 -20l-4 -4v-4z" />
<glyph unicode="D" horiz-adv-x="1605" d="M0 784v48q0 327 284 588q228 184 508 184h40q363 0 628 -332q144 -207 144 -432v-32q0 -455 -420 -716q-180 -92 -392 -92q-401 0 -668 368q-124 194 -124 416zM20 808q0 -109 40 -216h4v8q-24 112 -24 208q0 409 364 648q200 112 400 112q297 0 528 -212v4 q-208 228 -528 228q-431 0 -680 -388q-104 -183 -104 -384v-8zM136 788q0 -356 348 -572q146 -80 332 -80q363 0 584 360q72 161 72 312q0 389 -388 604q-141 56 -256 56h-36q-421 0 -620 -432q-36 -113 -36 -204v-44zM196 796v32q0 289 288 496q153 84 312 84h40 q328 0 516 -344q56 -112 56 -236v-28q0 -342 -320 -536q-137 -68 -292 -68q-326 0 -528 316q-72 130 -72 284zM216 800q0 -64 32 -148h4v4q-16 72 -16 148q0 284 232 460q146 104 316 104h32q217 0 376 -148v4q-143 168 -384 168q-258 0 -460 -212q-132 -158 -132 -348v-32z M252 640h4v8h-4v-8zM328 280q210 -184 476 -184q364 0 596 320q112 188 112 396q-4 87 -24 176h-4l4 -60v-108q0 -456 -432 -656q-133 -48 -256 -48q-231 0 -472 168v-4zM500 396l148 -8h120q341 0 432 300q12 48 12 88v40l-12 108h-4v-52l4 -56q0 -297 -296 -392 q-61 -12 -116 -12h-264q-24 -2 -24 -12v-4zM500 1088q0 -9 44 -16l200 4h48q102 0 188 -60q-41 68 -96 68q-23 11 -88 12h-260zM524 432l260 -4q294 0 384 284l12 96q0 239 -260 352q-77 20 -160 20l-224 -4l-12 4v-64l16 -4l236 8q231 0 320 -204q20 -66 20 -116 q0 -232 -248 -300l-76 -8h-40l-200 4l-28 -4v-60zM600 592l60 -8h24q44 0 44 56l-4 52l4 120l-4 180l-4 4h-4q-7 -6 -12 -52l4 -76v-108l-4 -148l-24 -8l-20 4h-28q-29 0 -32 -12v-4zM624 624h60v360h-56l-4 -88v-272z" />
<glyph unicode="E" horiz-adv-x="1609" d="M0 780v48q0 352 328 628q217 148 472 148h32q363 0 632 -340q144 -226 144 -484q0 -377 -368 -656q-201 -124 -444 -124q-416 0 -684 388q-112 186 -112 392zM20 796q0 -80 40 -200h4v4q-24 93 -24 196q0 419 364 660q185 108 372 108h56q264 0 496 -204v4 q-207 224 -524 224q-381 0 -640 -324q-144 -216 -144 -420v-48zM64 584h4v8h-4v-8zM132 812q0 -408 396 -620q139 -56 280 -56q359 0 584 344q76 149 76 300v52q0 335 -344 560q-158 76 -280 76h-48q-352 0 -564 -312q-100 -170 -100 -344zM196 784v44q0 357 388 544 q119 36 212 36h24q328 0 524 -324q64 -141 64 -268v-56q0 -257 -268 -464q-149 -100 -344 -100q-289 0 -488 252q-112 157 -112 336zM216 808q0 -84 40 -176h4v4q-24 76 -24 144v56q0 252 248 436q145 96 316 96q225 0 392 -144v4q-157 160 -364 160h-48q-201 0 -388 -160 q-176 -174 -176 -400v-20zM328 280q208 -184 480 -184q424 0 644 424q60 155 60 288q0 70 -28 188h-4v-8l8 -100v-68q0 -454 -432 -660q-134 -48 -244 -48q-239 0 -484 172v-4zM340 744q0 -8 40 -16l60 4h300l24 -4q64 0 64 52l-8 68l-16 -8v-28l4 -24l-8 -32l-120 -4h-220 l-76 4l-44 -8v-4zM364 772h420v60l-40 4h-380v-64zM436 932l20 -4h76q36 0 68 60q87 88 220 88h16l232 -4q52 0 52 44l-8 76q-12 0 -12 -16h-4l4 -4v-44q0 -29 -12 -32h-280q-167 0 -264 -148h-40l-44 4l-24 -8v-12zM468 636q117 -208 340 -208l268 4v60l-16 4l-216 -4h-36 q-168 0 -276 148h-64v-4zM468 968h64q113 148 264 148h104l164 -4l12 4v64l-4 -4h-4l-248 4q-242 0 -352 -212zM532 488q116 -100 292 -100h228q68 0 68 40v4l-8 76h-8l-4 -20v-44q0 -29 -12 -32h-20l-236 -4q-153 0 -296 84h-4v-4z" />
<glyph unicode="F" horiz-adv-x="1609" d="M0 796v36q0 355 328 624q221 148 472 148h32q318 0 576 -268q200 -236 200 -556q0 -388 -388 -668q-180 -112 -400 -112q-479 0 -740 440q-80 176 -80 356zM20 804q0 -112 44 -220h4v4q-28 115 -28 200v52q0 256 200 484q233 240 568 240h12q275 0 512 -204v4 q-218 224 -520 224q-368 0 -632 -304q-160 -219 -160 -480zM136 788q0 -367 368 -584q147 -68 308 -68q407 0 616 420q44 137 44 252q0 387 -372 596q-148 64 -256 64h-48q-386 0 -596 -368q-64 -145 -64 -256v-56zM196 816q0 357 356 540q127 52 244 52h28q318 0 516 -316 q72 -153 72 -304q0 -303 -304 -516q-147 -76 -300 -76q-353 0 -544 324q-68 136 -68 296zM212 812q0 -77 44 -176h4v4q-24 75 -24 140v44q0 307 316 488q119 56 256 56q203 0 360 -124v4q-57 80 -216 124q-55 16 -140 20q-294 0 -488 -244q-112 -164 -112 -336zM320 284 q223 -188 480 -188h12q360 0 588 328q112 182 112 392q0 71 -28 184h-4v-12l8 -80v-100q0 -410 -388 -628q-135 -64 -268 -64h-40q-225 0 -468 172h-4v-4zM340 740l32 -8h384l4 -4q64 8 64 24v96h-4l-16 -12l4 -52l-8 -28l-108 -4h-212l-104 4q-36 -9 -36 -16zM364 772h424 v64h-416l-8 -8v-56zM404 492l64 -8q60 5 60 20l4 88l-4 60h-4l-12 -4v-96q0 -44 -12 -44h-64q-29 0 -32 -12v-4zM428 524h64v116h-64v-116zM436 936q47 -12 80 -12q56 0 92 72q83 80 212 80h52l192 -4l52 16l4 72l-4 32q-16 -6 -16 -12v-60q0 -21 -12 -24h-64l-204 4 q-176 0 -268 -148l-20 -4h-28l-44 4q-24 -8 -24 -16zM472 968h60q108 152 308 152l236 -8l4 4v64l-4 -4h-4l-256 4q-242 0 -344 -212z" />
<glyph unicode="G" horiz-adv-x="1609" d="M0 788v40q0 372 356 648q206 128 432 128h44q361 0 624 -324q152 -224 152 -496q0 -389 -384 -668q-202 -116 -436 -116q-412 0 -684 400q-104 184 -104 388zM20 800q0 -100 36 -200h4v4q-20 100 -20 188q0 442 396 684q171 88 368 88h4q295 0 520 -200v4 q-207 220 -520 220q-402 0 -648 -336q-140 -208 -140 -452zM136 780q0 -343 348 -564q162 -80 328 -80q390 0 604 396q56 128 56 260q0 426 -404 624q-123 52 -240 52h-36q-370 0 -580 -352q-76 -151 -76 -280v-56zM196 784v28q0 314 300 516q149 80 296 80h28 q275 0 476 -248q116 -159 116 -368q0 -281 -256 -484q-161 -112 -352 -112q-326 0 -532 308q-76 131 -76 280zM212 808q0 -76 40 -164h4v4q-20 65 -20 144v24q0 330 336 504q113 48 212 48h52q177 0 356 -148q-144 172 -392 172q-340 0 -524 -328q-64 -145 -64 -256z M324 284q217 -188 468 -188h8q452 0 664 452q48 129 48 256q0 76 -28 196h-4v-4q12 -94 12 -164q0 -436 -392 -652q-155 -64 -296 -64q-236 0 -480 172v-4zM428 804q0 -250 252 -356q64 -20 116 -20h20q190 0 320 204v8h-68q-99 -148 -256 -148h-12q-224 0 -304 236l-4 60 v40q0 156 164 252q65 36 156 36h68l200 -4l4 28l-4 36l-288 4q-209 0 -332 -216q-32 -87 -32 -160zM512 792q0 -22 24 -68h4v4l-8 80v8q0 183 216 256l56 4l272 -4q48 0 48 48l-8 72h-4q-12 0 -12 -44v-44q0 -9 -52 -12l-228 8q-231 0 -300 -220l-8 -56v-32zM524 500 q117 -112 276 -112h8q246 0 372 248v20h-8q-105 -192 -252 -232q-64 -16 -116 -16q-124 0 -280 92zM796 744q0 -10 52 -16l40 4h280l56 -4q56 11 56 24v40l4 16l-4 16v24h-4q-16 -6 -16 -12l4 -52q0 -28 -28 -28l-60 -4h-256l-84 4zM824 772h420v64h-420v-64zM1476 1004h4v8 h-4v-8z" />
<glyph unicode="H" horiz-adv-x="1609" d="M0 788v40q0 388 376 660q191 116 420 116h32q343 0 600 -292q180 -223 180 -520q0 -397 -368 -664q-204 -128 -448 -128q-389 0 -668 364q-124 197 -124 424zM20 800q0 -107 40 -208h4v4q-24 119 -24 196v24q0 376 336 624q199 124 408 124h36q278 0 516 -208v4 q-219 228 -532 228q-395 0 -660 -352q-124 -198 -124 -436zM132 808q0 -414 400 -616q138 -56 268 -56q406 0 616 396q56 139 56 280q0 322 -292 544q-172 116 -364 116q-412 0 -620 -384q-64 -155 -64 -280zM196 788v36q0 264 240 464q171 120 356 120h20q350 0 544 -348 q56 -132 56 -260q0 -306 -288 -516q-151 -84 -300 -84h-44q-301 0 -500 292q-84 140 -84 296zM212 812q0 -80 40 -168h4v4q-20 59 -20 140v12q0 350 344 528q118 40 200 40h52q186 0 360 -148v4q-147 168 -400 168q-302 0 -500 -296q-80 -143 -80 -284zM316 288 q221 -192 484 -192h4q401 0 620 368q84 155 84 360q0 75 -20 164h-4v-4l8 -140q0 -507 -468 -692q-122 -36 -228 -36q-226 0 -480 176v-4zM452 448q32 -12 68 -12h16q44 0 44 44v456l-4 208h-4l-12 -4v-668l-12 -12h-64q-29 0 -32 -12zM476 480h64v652h-60l-4 -20v-632z M648 744q4 -12 24 -12h176l36 -4q88 0 88 44v56l-4 20l-16 -12v-72q0 -12 -104 -12h-172l-28 -4v-4zM672 780l8 -8h252v64h-256l-4 -28v-28zM1040 448q32 -12 68 -12h16q44 0 44 36v488l-4 188l-16 -8v-672l-8 -8h-68q-29 0 -32 -12zM1064 480h64v444l4 4l-4 4v200h-60 l-4 -20v-632zM1476 1012h4v8h-4v-8zM1480 992h4v12h-4v-12z" />
<glyph unicode="I" horiz-adv-x="1609" d="M0 792v36q0 376 360 652q204 124 436 124h32q358 0 616 -312q164 -222 164 -508q0 -385 -356 -652q-210 -132 -460 -132q-306 0 -556 232q-236 237 -236 560zM20 788q0 -103 48 -216h4v4q-32 101 -32 212q0 437 388 684q185 92 352 92h48q266 0 500 -200v4 q-212 220 -520 220q-390 0 -640 -324q-148 -222 -148 -440v-36zM72 560h4v8h-4v-8zM136 788q0 -319 288 -532q175 -120 384 -120q404 0 616 412q48 123 48 240q0 433 -404 628q-123 52 -240 52h-36q-261 0 -452 -184q-204 -207 -204 -460v-36zM196 808q0 341 336 540 q139 60 260 60h28q314 0 512 -304q80 -140 80 -316q0 -330 -340 -532q-143 -60 -268 -60q-338 0 -540 324q-68 136 -68 288zM212 808q2 -80 44 -172h4v4q-24 72 -24 144v44q0 271 268 456q139 84 296 84h12q208 0 376 -144v4q-149 164 -384 164q-362 0 -540 -356 q-52 -129 -52 -228zM340 276q198 -180 452 -180h8q452 0 664 452q48 125 48 256q0 82 -28 196h-4v-4l12 -188q0 -395 -376 -620q-147 -72 -312 -72q-230 0 -460 160h-4zM648 396l60 -8h200q64 0 64 36v72l-8 8l-12 -4v-80l-8 -8l-128 -4l-140 4q-28 -5 -28 -16zM648 1084 q40 -12 92 -12h156q76 0 76 36v64l-4 20l-16 -12v-76l-8 -8h-276l-20 -4v-8zM672 468l4 -40h260v64h-260zM672 1116l80 -4l140 4h44v56l-8 8h-248l-8 -8v-56zM748 592l48 -8h20q38 0 56 16l4 160v88l-4 148q-16 -6 -16 -12v-352q0 -22 -20 -28l-52 4l-36 -8v-8zM772 624h64 v356h-60l-4 -140v-216z" />
<glyph unicode="J" horiz-adv-x="1609" d="M0 792v36q0 377 360 652q204 124 436 124h32q377 0 636 -340q144 -212 144 -480q0 -386 -360 -656q-214 -128 -452 -128q-398 0 -664 356q-132 196 -132 436zM16 812q0 -111 48 -224h4v4q-28 101 -28 184v48q0 385 368 636q188 108 396 108q291 0 528 -208v4 q-217 224 -520 224q-358 0 -608 -276q-188 -248 -188 -500zM68 576h4v8h-4v-8zM136 784q0 -346 340 -564q167 -84 324 -84q394 0 608 380q64 128 64 272q0 428 -396 624q-127 56 -236 56h-52q-364 0 -576 -352q-76 -143 -76 -288v-44zM196 808q0 342 336 540q131 60 260 60 h36q350 0 536 -364q48 -136 48 -252q0 -318 -312 -520q-146 -76 -296 -76q-338 0 -540 324q-68 137 -68 288zM216 792q0 -84 36 -140v4q-16 92 -16 132v28q0 307 300 488q119 64 252 64h56q171 0 332 -132v4q-118 152 -372 152q-295 0 -476 -244q-112 -161 -112 -356z M340 272q206 -176 452 -176h8q408 0 628 376q84 163 84 332v8q0 91 -28 192h-4v-4l12 -196q0 -410 -392 -620q-135 -64 -268 -64h-56q-201 0 -436 156v-4zM432 780q0 -116 108 -248q111 -100 244 -100h40q223 0 328 236q28 90 28 204v160l-4 48h-60v-256q0 -227 -196 -316 q-63 -16 -112 -16h-16q-219 0 -292 248l-8 44h-60v-4zM520 504q121 -116 284 -116q276 0 392 280q24 94 24 180v8q0 156 -8 240l-12 -12v-216q0 -340 -256 -432q-50 -24 -128 -24h-16q-124 0 -280 92zM520 776l16 -44h4v8q-7 60 -16 60l-4 -4v-20z" />
<glyph unicode="K" horiz-adv-x="1609" d="M0 796v36q0 363 344 636q207 136 452 136h32q380 0 648 -352q132 -212 132 -468q0 -343 -292 -604q-224 -180 -524 -180q-371 0 -636 324q-156 209 -156 472zM20 812q0 -142 56 -244v4q-32 101 -32 208v44q0 367 340 620q196 120 400 120h44q276 0 512 -212v4 q-218 228 -500 228h-24l-4 4l-4 -4h-32q-271 0 -504 -200q-252 -250 -252 -572zM136 792q0 -386 400 -600q142 -56 272 -56q261 0 460 192q204 192 204 460q0 429 -404 628q-128 52 -240 52h-36q-390 0 -600 -392q-56 -133 -56 -252v-32zM196 812q0 340 340 536 q120 60 264 60h28q322 0 516 -320q68 -145 68 -300q0 -314 -312 -516q-145 -76 -296 -76q-310 0 -512 280q-96 149 -96 336zM212 812q0 -72 40 -164h4v4q-20 73 -20 144v20q0 321 328 504q121 48 228 48h48q177 0 344 -136v4q-141 156 -384 156q-371 0 -544 -376 q-44 -121 -44 -204zM256 636h4v8h-4v-8zM340 272q202 -176 468 -176q385 0 612 360q92 161 92 360q0 85 -32 208h-4v-4q16 -81 16 -188q0 -470 -440 -672q-126 -40 -220 -40h-68q-188 0 -424 156v-4zM500 388q42 -12 80 -12q52 0 52 48l-4 56l4 308l-4 364l-4 28l-12 -4 l-4 -64l4 -376l-4 -328l-12 -8h-64q-29 0 -32 -12zM528 420h64v748h-64v-748zM724 792q0 -281 324 -356l32 -4v64q-119 0 -232 112q-64 87 -64 196q0 217 216 292q52 16 80 16v64h-8q-165 0 -296 -176q-52 -93 -52 -180v-28zM804 812q0 -56 32 -92v4l-12 84q0 184 200 252 q92 15 92 40l4 48l-4 48q-16 -6 -16 -28v-64q0 -10 -52 -12q-129 -34 -196 -120q-48 -86 -48 -160zM812 500q145 -108 260 -108h16q32 0 32 32l-4 88q-16 -5 -16 -36v-56l-8 -8q-112 0 -276 92h-4v-4z" />
<glyph unicode="L" horiz-adv-x="1605" d="M0 796v36q0 350 312 612q216 160 476 160h40q394 0 660 -376q116 -209 116 -432v-16q0 -401 -380 -664q-208 -116 -436 -116q-396 0 -668 368q-120 195 -120 428zM16 804q0 -101 44 -212h4v4q-24 75 -24 172v48q0 400 376 652q189 96 364 96h52q261 0 492 -200 q-198 224 -520 224q-414 0 -664 -360q-124 -216 -124 -424zM136 784q0 -369 372 -580q145 -68 296 -68q426 0 628 432q36 113 36 204v28q0 396 -380 612q-141 56 -256 56h-40q-401 0 -604 -396q-52 -131 -52 -232v-56zM196 792v32q0 316 312 512q137 72 284 72h32 q340 0 528 -340q56 -137 56 -272v-12q0 -306 -296 -504q-140 -80 -292 -80h-44q-280 0 -480 264q-100 147 -100 328zM212 808q0 -61 32 -152h4v4q-12 55 -12 100v48q0 340 324 512q112 48 224 48h36q202 0 360 -136h4q-138 160 -372 160q-344 0 -536 -316q-64 -136 -64 -268 zM328 276q211 -180 472 -180q434 0 648 416q60 137 60 292q0 94 -28 208h-4v-8q12 -65 12 -140v-48q0 -434 -404 -640q-137 -56 -256 -56h-52q-208 0 -448 160v-4zM500 388l60 -12l80 4h296l124 -4q60 0 60 56v32l-4 32l-16 -12v-72l-4 -4v-4l-128 -4h-444q-24 -2 -24 -12z M500 584l60 -12q45 4 64 16l4 220v168l-4 208l-16 -8v-416l-4 -160l-4 -4h-76q-24 -2 -24 -12zM524 420h556v60l-88 4h-460l-8 -8v-56zM524 616h64v552h-56l-8 -8v-544zM1472 1016h4v8h-4v-8z" />
<glyph unicode="M" horiz-adv-x="1609" d="M0 776v52q0 393 376 660q198 116 424 116h32q381 0 648 -360q128 -194 128 -432q0 -477 -460 -740q-159 -72 -348 -72q-412 0 -684 376q-116 198 -116 400zM20 800q0 -79 36 -196h4v4q-20 97 -20 180q0 479 440 708q161 68 296 68h64q251 0 480 -196v4q-202 216 -516 216 q-400 0 -660 -352q-124 -198 -124 -436zM60 592h4v8h-4v-8zM132 804q0 -330 296 -556q174 -112 368 -112q420 0 624 404q52 118 52 240v32q0 255 -184 452q-215 204 -444 204h-56q-408 0 -612 -432q-44 -131 -44 -232zM196 784v40q0 294 304 508q145 76 300 76h20 q283 0 484 -256q108 -143 108 -340q0 -378 -364 -568q-112 -48 -248 -48q-327 0 -528 308q-76 136 -76 280zM212 804q0 -72 40 -160h4v4q-20 73 -20 132v52q0 262 268 456q142 80 288 80h32q197 0 368 -148v4q-141 168 -384 168q-362 0 -540 -344q-56 -126 -56 -244z M328 280q210 -184 472 -184q346 0 580 292q132 186 132 408v16q0 73 -20 168h-4v-4l4 -104v-20q0 -513 -456 -696q-105 -40 -236 -40q-236 0 -472 168v-4zM404 492l76 -8h8q48 2 48 48l-4 232v32q0 161 140 248l8 28l-4 88h-4q-12 -4 -12 -24v-64q-152 -129 -152 -268v-20 l8 -212q-3 -64 -12 -64h-76q-24 -2 -24 -12v-4zM428 788l4 -260h64l-4 180v100q0 161 144 260l4 4v36q0 28 -8 28q-204 -111 -204 -348zM748 328l76 -12q52 0 52 56v880l-8 8l-12 -16v-612l-4 -288l-4 -4h-4l-60 4q-36 -5 -36 -16zM772 360h64v880h-56l-8 -8v-872zM948 1040 l32 -28h4q-13 28 -36 28zM968 1076q148 -112 148 -276l4 -32l-8 -208l4 -32h60l4 272q0 230 -212 336v-60zM1088 496q32 -12 68 -12h16q48 0 48 52l-4 68l4 176q0 70 -16 144h-4v-100l-4 -296q-5 -20 -12 -20h-64q-29 0 -32 -12z" />
<glyph unicode="N" horiz-adv-x="1605" d="M0 784v44q0 376 356 648q204 128 432 128h32q418 0 684 -400q100 -191 100 -360v-76q0 -380 -388 -656q-185 -112 -404 -112q-448 0 -704 396q-108 188 -108 388zM20 812q0 -113 40 -216h4v4q-24 116 -24 208q0 378 320 620q192 136 440 136h8q282 0 504 -188v4 q-204 208 -504 208q-390 0 -644 -328q-144 -206 -144 -440v-8zM132 812q0 -426 420 -628q138 -48 248 -48q394 0 608 380q64 132 64 284q0 363 -328 576q-156 92 -300 92h-56q-250 0 -456 -188q-200 -215 -200 -468zM196 796v28q0 299 288 500q153 84 308 84h28 q302 0 504 -288q84 -137 84 -288v-48q0 -314 -308 -512q-128 -76 -296 -76q-314 0 -520 284q-88 149 -88 316zM212 816q0 -85 40 -172h4v4q-20 64 -20 152q0 346 320 516q115 52 232 52h40q181 0 356 -140v4q-147 160 -380 160q-369 0 -544 -356q-48 -117 -48 -220zM324 284 q210 -188 484 -188q373 0 600 344q100 173 100 352v48q0 79 -28 180h-4v-4q12 -66 16 -168q0 -484 -436 -688q-124 -40 -220 -40h-60q-214 0 -452 168v-4zM400 496l80 -12q56 0 56 64v12l-8 192v8q0 209 144 284q69 32 132 32q95 0 176 -60h4q-57 80 -164 80h-40 q-152 0 -240 -160q-32 -86 -32 -144l4 -236q-2 -48 -16 -48h-32l-24 4q-40 -7 -40 -16zM428 528h64l-4 260q0 229 220 316q42 12 84 12h20q210 0 288 -220q16 -75 16 -168v-200h60l4 108v76q0 316 -172 408q-87 60 -204 60h-12q-247 0 -340 -256q-24 -64 -24 -180v-216z M1088 496q44 -12 76 -12q56 0 56 56l-4 84l4 64q0 148 -24 252h-4v-12l8 -312l-4 -104l-4 -4h-80q-24 -2 -24 -12z" />
<glyph unicode="O" horiz-adv-x="1609" d="M0 788v40q0 329 288 596q219 180 512 180h32q355 0 620 -324q156 -217 156 -496q0 -421 -416 -688q-178 -96 -380 -96q-481 0 -736 452q-76 177 -76 336zM20 816q0 -107 44 -228h4v4q-28 91 -28 204q0 434 392 676q183 92 344 92h60q243 0 476 -188v4q-193 204 -480 204 h-52q-372 0 -628 -336q-132 -205 -132 -432zM132 812q0 -425 420 -628q141 -48 248 -48q400 0 612 388q60 125 60 280q0 287 -224 496q-200 168 -404 168h-56q-297 0 -516 -256q-140 -187 -140 -400zM196 816q0 321 308 520q148 72 288 72h28q320 0 520 -316 q72 -148 72 -296q0 -340 -344 -544q-123 -56 -264 -56q-292 0 -500 260q-108 150 -108 360zM216 816q0 -112 44 -184v4q-24 84 -24 160v24q0 215 156 380q168 168 412 168h12q198 0 368 -140v4q-146 160 -380 160q-306 0 -500 -272q-88 -150 -88 -304zM328 280 q215 -184 488 -184q391 0 616 384q76 141 76 304v44q0 90 -28 188h-4v-4q12 -46 16 -168q0 -453 -400 -668q-137 -56 -256 -56h-52q-211 0 -456 164v-4zM428 800q0 -214 208 -336q87 -32 160 -32h16q224 0 336 220q32 76 32 156q0 216 -212 328v-60q148 -120 148 -264v-12 q0 -206 -208 -292q-44 -16 -104 -16h-8q-209 0 -292 228l-8 56v36q0 156 136 252l8 20l-4 52q-208 -109 -208 -336zM512 812q0 -38 24 -84h4l-8 72q0 158 136 240l12 44l-4 60v16h-4q-16 0 -16 -48v-48l-76 -68q-68 -89 -68 -184zM524 496q115 -108 280 -108q251 0 376 240 q40 91 40 168q-4 64 -20 128h-4v-4l4 -84v-12q0 -299 -288 -400q-40 -12 -92 -12h-28q-115 0 -268 84zM744 788l64 -8h28q33 0 40 40l-4 108v332l-20 -16v-432q0 -7 -20 -12l-56 4h-4l-28 -8v-8zM772 824h60v416h-60v-416zM944 1044l40 -36q-20 36 -40 36z" />
<glyph unicode="P" horiz-adv-x="1609" d="M0 788v36q0 346 316 620q208 160 488 160h28q380 0 648 -360q128 -205 128 -432q0 -458 -408 -708q-180 -104 -408 -104q-360 0 -632 320q-160 202 -160 468zM20 804q0 -108 44 -224h4v4q-28 95 -28 212q0 452 432 696q162 72 304 72h52q270 0 496 -200q-89 132 -332 200 q-84 20 -156 20h-60q-403 0 -660 -404q-96 -175 -96 -376zM136 780q0 -313 304 -540q163 -104 340 -104h4q436 0 632 396q56 124 56 272q0 439 -448 632q-106 32 -176 32h-48q-338 0 -552 -292q-112 -162 -112 -396zM196 816q0 312 312 520q147 72 296 72h32q269 0 472 -264 q104 -148 104 -332q0 -393 -388 -576q-120 -40 -228 -40q-293 0 -496 264q-104 151 -104 356zM216 792q0 -74 36 -152h4v4q-20 74 -20 156v8q0 309 292 492q133 68 256 68h36q190 0 360 -136v4q-125 152 -368 152q-381 0 -552 -360q-44 -123 -44 -236zM332 276 q206 -180 452 -180h28q303 0 536 252q164 195 164 464q-8 130 -28 200h-4v-4q12 -100 12 -192q0 -424 -380 -628q-162 -72 -320 -72q-228 0 -460 164v-4zM404 728l60 -8h460l236 -4q60 0 60 48v4q0 75 -20 160h-4v-4l4 -116q0 -47 -8 -64l-328 -4h-320l-116 4 q-24 -8 -24 -16zM428 764h752q0 408 -452 408l-200 -4v-208h60v100q0 28 8 44l120 4h32q264 0 348 -192q12 -35 16 -84l-4 -4l-168 -4h-512v-60zM500 932q0 -10 72 -20q60 6 60 36l-4 104v4q0 12 44 12h60q174 0 256 -64v4q-45 80 -232 80h-80l-68 -4v-136q0 -8 -24 -12 l-56 4zM504 388q16 -8 72 -12q56 0 56 44l-4 124v100q-18 -8 -20 -16v-204q0 -21 -12 -24h-36l-16 4q-40 -7 -40 -16zM524 540l4 -120h60v208h-56z" />
<glyph unicode="Q" horiz-adv-x="1609" d="M0 812v32q0 362 376 640q187 120 440 120h24q317 0 588 -292q180 -219 180 -512v-36q0 -322 -312 -600q-224 -164 -508 -164q-356 0 -628 320q-160 216 -160 492zM24 776q0 -89 40 -192h4v4q-28 109 -28 200q0 452 416 696q163 80 340 80h28q281 0 512 -212v4 q-214 232 -532 232q-357 0 -612 -296q-168 -222 -168 -460v-56zM136 812q0 -468 484 -652q103 -24 184 -24q385 0 596 360q72 142 72 300v20q0 310 -280 536q-170 116 -356 116h-44q-296 0 -504 -240q-152 -196 -152 -416zM200 784v56q0 221 196 416q175 152 408 152h4 q380 0 564 -380q40 -119 40 -228v-16q0 -314 -308 -512q-138 -76 -296 -76q-324 0 -528 296q-80 138 -80 292zM216 796q0 -65 40 -160h4v4q-24 77 -24 168q0 305 296 496q131 64 272 64h8q193 0 360 -128v4q-44 69 -164 108q-91 36 -180 36h-56q-286 0 -480 -292 q-76 -156 -76 -260v-40zM320 288q212 -192 484 -192q407 0 640 392q68 159 68 324q0 80 -24 180h-4v-4l8 -120v-32q0 -484 -440 -672q-127 -48 -248 -48q-243 0 -484 176v-4zM428 800q0 -199 180 -320q88 -48 172 -48h36q46 0 104 16v4l-48 48l-60 -4h-20q-206 0 -288 216 q-12 29 -12 80v20q0 202 208 288q44 16 104 16h4q218 0 300 -228q8 -18 8 -52v-32l-8 -64q0 -23 52 -52q16 71 16 128q0 246 -260 344q-67 20 -136 20q-203 0 -320 -224q-32 -84 -32 -156zM512 804q0 -53 32 -88v4l-12 84q0 196 204 264l76 8q84 0 172 -60q-16 43 -76 64 q-57 16 -88 16h-16q-225 0 -288 -244zM532 492q116 -104 264 -104q172 9 172 48v16q-59 -44 -156 -44q-127 0 -276 84h-4zM800 768q140 -152 292 -292q40 27 40 44l-296 288q-10 -4 -36 -40zM1052 456l32 -24h12q24 0 80 72v12l-8 8q-62 -80 -100 -80l-16 16v-4zM1108 676 l16 -12v4q0 6 -16 12v-4zM1144 644l24 -8q48 31 48 180q0 54 -16 112h-4v-32l4 -52q-7 -192 -48 -192z" />
<glyph unicode="R" horiz-adv-x="1605" d="M0 800v32q0 360 344 632q202 136 460 136h28q357 0 624 -332q148 -206 148 -432v-64q0 -387 -376 -656q-201 -116 -420 -116h-52q-346 0 -624 348q-132 202 -132 452zM20 776q0 -73 36 -176h4v4q-20 84 -20 176v16q0 426 384 668q181 96 352 96h52q256 0 492 -196v4 q-195 212 -496 212h-48q-406 0 -664 -400q-92 -176 -92 -340v-64zM136 792q0 -376 356 -588q141 -72 292 -72h8q396 0 620 384q60 141 60 276q0 438 -432 632q-108 40 -196 40h-44q-390 0 -604 -376q-60 -131 -60 -268v-28zM196 800v20q0 285 276 492q157 92 324 92h28 q302 0 504 -300q80 -135 80 -268v-56q0 -337 -340 -528q-137 -56 -256 -56h-48q-237 0 -448 236q-120 158 -120 368zM216 788q0 -72 36 -156h4v4q-20 76 -20 148v44q0 242 232 432q146 104 316 104h32q204 0 368 -144v4q-124 160 -368 160h-12q-378 0 -548 -368 q-40 -115 -40 -196v-32zM312 284q220 -192 472 -192h20q337 0 572 292q132 180 132 388v56q0 82 -28 180h-4v-4q12 -71 16 -172q0 -496 -472 -684q-108 -36 -228 -36q-227 0 -480 176v-4zM400 728q37 -12 92 -12h40l160 4l8 12v4l-28 4l-204 -4l-52 4q-16 -6 -16 -12z M424 760l24 -4l136 4h4l128 -4q57 -174 112 -220q118 -108 252 -108v60q-107 0 -220 100q-64 93 -64 160q17 12 100 12h280v28q0 273 -264 360q-65 16 -180 20l-208 -4v-208h20l4 -4l4 4h36v96q0 52 36 52h124q278 0 348 -204q12 -26 12 -64v-4l-4 -4v-4l-160 -4h-520v-60z M500 384q36 -12 76 -12q56 0 56 52l-4 48v164l-8 8q-12 -20 -12 -40v-200l-8 -8h-76q-24 -2 -24 -12zM500 920l80 -12q52 5 52 48l-8 88q0 20 68 20h40q186 0 256 -64v4q-47 80 -216 80h-60q-104 0 -104 -12v-128l-12 -12h-12l-56 4q-28 -7 -28 -16zM524 416h64v208h-60 l-4 -80v-128zM816 492q140 -108 272 -108q32 0 32 60l-4 56h-4l-12 -4v-64q0 -24 -16 -24q-104 0 -268 88v-4zM816 736l20 -24l28 4h92l200 -4q64 0 64 52v24q0 42 -20 128h-4v-168q0 -12 -92 -12h-288z" />
<glyph unicode="S" horiz-adv-x="1605" d="M0 804v32q0 372 360 644q200 124 436 124h32q406 0 676 -404q100 -181 100 -368v-52q0 -413 -408 -680q-184 -100 -396 -100q-426 0 -700 404q-100 192 -100 400zM20 808q0 -129 48 -240h4v4q-32 93 -32 200v32q0 454 432 692q165 68 308 68h40q261 0 492 -188v4 q-205 208 -512 208q-396 0 -652 -344q-128 -193 -128 -436zM136 792q0 -388 388 -596q139 -60 276 -60q410 0 620 404q48 133 48 240v56q0 290 -268 504q-184 128 -360 128h-56q-319 0 -524 -276q-124 -177 -124 -360v-40zM196 800q0 375 360 560q119 48 240 48h24 q325 0 532 -336q56 -131 56 -232v-60q0 -336 -348 -528q-132 -56 -256 -56q-330 0 -532 300q-76 148 -76 304zM216 804q0 -79 40 -176h4v4q-20 56 -28 176q0 332 332 512q112 48 232 48h20q198 0 364 -140h4q-141 164 -380 164q-338 0 -536 -332q-52 -123 -52 -220v-36z M336 272q204 -176 468 -176q372 0 604 340q100 176 100 352v48q0 71 -24 164h-4v-4l8 -120v-28q0 -523 -480 -704q-103 -28 -200 -28q-233 0 -472 160v-4zM400 740l36 -12l48 4h364l284 -4q52 0 52 48l-8 76q-16 0 -16 -60v-28q0 -12 -104 -12h-632q-24 -2 -24 -12zM428 772 h716v64h-716v-64zM432 936q48 -12 88 -12q44 0 72 52q87 100 200 100l288 -4q40 0 40 48l-8 68h-4l-12 -16l4 -44q-2 -32 -12 -32h-288q-159 0 -252 -144l-20 -4h-48l-16 4q-32 -8 -32 -16zM472 968h60q102 152 308 152l240 -8v64l-288 4q-211 0 -320 -208v-4zM500 396 l40 -8l60 4l160 -4q306 0 408 232l12 40q-20 -7 -64 -92q-113 -160 -324 -160l-236 4l-4 4h-4l-48 -12v-8zM524 432l276 -4q225 0 336 212h-68q-99 -148 -276 -148h-20l-208 4l-40 -4v-60z" />
<glyph unicode="T" horiz-adv-x="1605" d="M0 796v36q0 379 360 648q207 124 436 124h32q387 0 648 -360q128 -205 128 -432v-44q0 -394 -392 -660q-181 -108 -408 -108q-403 0 -680 364q-124 199 -124 432zM20 800q0 -106 44 -220h4v4q-28 84 -28 184v52q0 430 424 668q165 76 320 76h40q277 0 504 -204v4 q-212 224 -508 224h-12q-403 0 -664 -348q-124 -199 -124 -392v-48zM68 568h4v8h-4v-8zM136 784q0 -347 352 -572q156 -76 300 -76h28q382 0 600 392q52 135 52 260v32q0 358 -340 568q-163 84 -320 84q-332 0 -552 -276q-120 -184 -120 -364v-48zM196 780v40q0 333 348 536 q129 52 244 52h44q341 0 520 -344q56 -119 56 -252v-36q0 -272 -268 -480q-155 -100 -336 -100q-371 0 -568 376q-40 112 -40 208zM212 812q0 -76 36 -164h4v4q-16 61 -16 116v56q0 261 260 460q158 88 312 88q207 0 368 -136h4q-124 156 -360 156q-388 0 -568 -372 q-40 -124 -40 -208zM324 284q208 -188 480 -188q406 0 636 392q68 143 68 324q0 92 -28 200h-4v-8q12 -65 12 -140v-48q0 -420 -376 -628q-149 -72 -308 -72q-244 0 -480 172v-4zM500 1084l16 -8l476 -4h40q88 0 88 36v8l-4 80h-4q-12 -2 -12 -32v-56q0 -12 -84 -12h-200 l-224 4l-76 -4zM524 1116h556v64h-552l-4 -20v-44zM744 404q0 -14 80 -16q52 0 52 36l-4 220v356h-4q-13 0 -16 -48l4 -276l-4 -260l-4 -4h-76zM772 432h64v548h-64v-548z" />
<glyph unicode="U" horiz-adv-x="1605" d="M0 804v36q0 352 344 628q202 136 448 136h36q385 0 652 -364q124 -201 124 -416v-52q0 -360 -360 -644q-195 -128 -432 -128h-8q-423 0 -692 384q-112 199 -112 420zM16 824q0 -91 44 -232h4v4q-24 88 -24 192v8q0 433 388 676q172 96 384 96q277 0 516 -208v4 q-211 224 -528 224q-461 0 -708 -448q-76 -170 -76 -316zM136 800q0 -399 388 -600q132 -64 268 -64h32q342 0 572 356q72 148 72 288v56q0 340 -360 564q-162 72 -296 72q-451 0 -648 -460q-28 -106 -28 -180v-32zM196 804v12q0 325 312 520q141 72 288 72h16 q359 0 548 -356q48 -120 48 -232v-48q0 -289 -304 -496q-128 -80 -292 -80h-4q-330 0 -540 312q-72 141 -72 296zM216 808q0 -90 40 -180h4v4q-21 59 -28 176q0 342 348 520q122 44 228 44q199 0 368 -140v4q-127 156 -372 156q-233 0 -412 -168q-176 -172 -176 -412v-4z M324 284q216 -188 480 -188q402 0 636 396q68 158 68 304v40q0 82 -28 180h-4v-4q12 -65 16 -164q0 -323 -192 -516q-217 -216 -500 -216q-227 0 -476 172v-4zM424 920q0 -335 172 -432q88 -60 208 -60q253 0 348 256q28 81 28 252v144h-64l-4 -16l4 -216v-12 q0 -240 -192 -324q-55 -20 -116 -20h-12q-204 0 -288 204q-20 67 -20 148l4 236h-64zM504 876q0 -80 28 -152h4v4l-8 100l4 240l-4 24h-4q-12 -4 -12 -24zM524 496q117 -108 280 -108q269 0 384 268q32 100 32 260l-8 180l-16 -20l4 -68v-84q0 -391 -244 -488 q-79 -24 -132 -24h-48q-92 0 -252 88v-4z" />
<glyph unicode="V" horiz-adv-x="1609" d="M0 804v32q0 366 360 644q200 124 436 124h32q365 0 632 -336q148 -215 148 -476q0 -300 -236 -552q-229 -240 -556 -240h-24q-388 0 -672 372q-120 202 -120 432zM16 828q0 -113 52 -252h4v4q-36 119 -36 232q0 374 352 636q196 116 388 116h64q244 0 472 -192v4 q-197 212 -512 212q-427 0 -680 -396q-104 -200 -104 -364zM136 800q0 -417 412 -612q119 -52 240 -52h36q333 0 552 324q96 157 96 336q0 370 -344 592q-161 80 -288 80h-48q-364 0 -576 -344q-80 -142 -80 -292v-32zM196 804v20q0 277 252 472q163 112 344 112h24 q347 0 540 -348q52 -127 52 -244v-48q0 -306 -340 -512q-111 -60 -256 -60h-12q-313 0 -520 296q-84 141 -84 312zM216 808q0 -87 40 -176h4v4q-20 53 -28 168q0 342 340 520q112 44 220 44h28q186 0 348 -128q-50 85 -196 128q-93 24 -168 24q-352 0 -544 -352 q-44 -115 -44 -204v-28zM324 284q222 -188 456 -188h44q356 0 592 352q92 167 92 348v28q0 88 -28 192h-4v-8q12 -69 16 -168q0 -460 -412 -668q-135 -56 -272 -56q-241 0 -484 172v-4zM500 400q29 -12 80 -12q48 0 48 40v368l4 32l-4 32v116l-4 120l-16 -12v-664l-8 -8h-68 q-29 0 -32 -12zM528 432h64v160l-4 488h-60v-648zM696 396l36 -8q143 0 288 140q100 128 100 280l-4 292l-20 -12l4 -220v-44q0 -263 -240 -384q-51 -20 -160 -32l-4 -4v-8zM724 432q75 0 200 64q156 120 156 324l-4 260h-60v-172l4 -60q0 -253 -196 -332q-60 -20 -100 -24 v-60zM1472 1020h4v8h-4v-8z" />
<glyph unicode="W" horiz-adv-x="1605" d="M0 804v32q0 353 324 620q214 148 472 148h32q392 0 652 -368q124 -185 124 -416v-20q0 -385 -336 -652q-201 -148 -452 -148h-16q-411 0 -680 372q-120 197 -120 432zM20 792q0 -84 44 -208h4v4q-28 86 -28 204v16q0 454 440 692q175 68 324 68q273 0 508 -192v4 q-204 208 -508 208q-368 0 -628 -308q-156 -207 -156 -428v-60zM136 792q0 -252 172 -436q224 -220 480 -220h36q301 0 524 284q120 167 120 372v44q0 329 -340 552q-154 80 -296 80h-40q-415 0 -616 -428q-40 -115 -40 -196v-52zM196 804v12q0 289 256 484q163 108 340 108 h24q309 0 512 -292q80 -144 80 -304v-28q0 -279 -256 -480q-151 -108 -340 -108h-8q-298 0 -500 256q-108 152 -108 352zM216 796q0 -67 32 -148h4v4q-16 61 -16 152q0 341 324 512q121 56 244 56q206 0 376 -144v4q-130 160 -372 160q-334 0 -516 -296q-76 -142 -76 -264 v-36zM324 284q224 -188 460 -188h40q335 0 568 316q116 169 116 416q0 87 -28 192h-4v-4q12 -45 12 -128v-52q-3 -493 -456 -684q-118 -36 -232 -36q-230 0 -476 172v-4zM424 812q0 -214 192 -332l20 -8v64q-148 110 -148 272l4 240l-4 32h-60v-8zM508 792q0 -19 24 -64h4v4 l-8 96l4 200l-4 68h-4q-10 0 -12 -16zM520 504q86 -80 136 -80q20 6 20 40v24l-4 60l-16 -12v-84q0 -8 -12 -8zM744 332q47 -12 80 -12q48 0 48 44v904l-20 -12v-868q0 -44 -12 -44h-72q-24 -2 -24 -12zM768 364h64v884h-56l-8 -8v-876zM940 428l16 -4q105 34 208 168 q52 101 52 220v16l-4 268q-16 0 -16 -40h-4l4 -68v-180q0 -252 -240 -364q0 -8 -12 -8l-4 -4v-4zM960 520l8 -48q212 106 212 348l-8 260h-60v-32l4 -220q0 -208 -148 -284z" />
<glyph unicode="X" horiz-adv-x="1605" d="M0 776v36q0 427 396 688q187 104 396 104h40q370 0 628 -332q144 -214 144 -444v-52q0 -415 -408 -676q-186 -100 -368 -100h-52q-349 0 -608 308q-168 222 -168 468zM20 800q0 -96 40 -208h4v4q-24 83 -24 176v32q0 418 384 664q185 100 384 100q286 0 524 -208v4 q-211 224 -524 224q-428 0 -688 -392q-100 -174 -100 -356v-40zM64 580h4v8h-4v-8zM136 780q0 -354 364 -576q151 -68 300 -68q398 0 616 392q56 140 56 288q0 375 -380 592q-150 60 -252 60h-52q-375 0 -584 -364q-68 -141 -68 -296v-28zM196 792v28q0 302 300 508 q146 80 304 80h24q332 0 524 -332q64 -132 64 -280q0 -299 -292 -516q-146 -84 -308 -84h-12q-316 0 -528 304q-76 144 -76 292zM212 812q0 -63 32 -156h4v4q-12 51 -12 112v28q0 333 324 520q115 48 208 48h64q180 0 340 -128v4q-117 148 -368 148q-309 0 -512 -292 q-80 -150 -80 -288zM316 288q220 -192 464 -192h40q344 0 576 320q116 180 116 404q0 84 -28 180h-4v-4l8 -76v-112q0 -416 -396 -632q-135 -60 -284 -60q-251 0 -492 176v-4zM404 476l76 -12q56 0 56 64q0 105 132 200q12 23 12 52l-8 84q-12 0 -16 -44l4 -68 q-115 -86 -140 -184q-10 -80 -20 -80l-60 4l-36 -8v-8zM428 508h64q0 136 144 248l8 20l-8 68l4 4q-148 115 -148 252h-60v-4q0 -157 152 -288v-12q-156 -138 -156 -288zM516 1092q0 -32 24 -52l-12 76q-12 -4 -12 -24zM744 692l60 -12h32q40 0 40 60v32q0 77 -8 116h-8 l-4 -20v-40l-4 -120l-4 -4h-68l-36 -8v-4zM772 724h64v120l-4 28h-56l-4 -20v-128zM944 728l36 -32h4q-15 32 -40 32zM964 832l4 -72q144 -117 144 -244v-8h64q0 152 -152 288v12q0 11 76 84q76 98 76 208h-60q0 -100 -100 -212q-52 -27 -52 -56zM1052 808h24 q136 124 136 276v32l-16 -12q0 -155 -144 -296zM1088 476l68 -12q60 0 60 40l-16 108h-4v-116l-8 -8l-64 4q-36 -4 -36 -16z" />
<glyph unicode="Y" horiz-adv-x="1605" d="M0 796v44q0 381 368 644q214 120 416 120h44q393 0 656 -372q120 -192 120 -416v-44q0 -407 -412 -676q-180 -96 -380 -96h-8q-437 0 -700 400q-104 193 -104 396zM20 796q0 -90 44 -212h4v4q-28 78 -28 208q0 495 480 720q152 52 284 52q293 0 524 -208v4 q-210 224 -524 224q-452 0 -708 -432q-76 -168 -76 -304v-56zM136 800q0 -414 412 -616q134 -48 240 -48h28q363 0 580 356q72 143 72 300v48q0 330 -352 556q-165 76 -304 76q-422 0 -628 -412q-48 -122 -48 -228v-32zM196 800v24q0 301 296 504q153 80 304 80h16 q333 0 532 -320q64 -135 64 -268v-48q0 -239 -220 -440q-163 -136 -380 -136q-327 0 -528 292q-84 146 -84 312zM216 808q0 -93 40 -180h4v4q-24 84 -24 160v36q0 302 312 484q131 60 256 60q216 0 396 -160v4q-157 176 -396 176q-286 0 -480 -244q-108 -156 -108 -340z M316 288q213 -192 492 -192q366 0 600 336q100 171 100 352v44q0 77 -24 180h-4v-4l12 -196q0 -356 -304 -576q-178 -116 -380 -116q-247 0 -492 176v-4zM428 1100q0 -110 92 -232q80 -71 116 -80v68q-144 97 -144 244h-64zM512 1092q9 -39 28 -52l-12 76q-16 -4 -16 -24z M524 816q92 -80 128 -80q21 0 24 40v28l-4 60l-16 -8v-88l-8 -8zM744 348l60 -8h28q44 0 44 52l-4 60v440q-7 0 -24 -28l4 -168v-324l-8 -8h-64l-36 -8v-8zM768 388l8 -8h56v492h-56l-8 -8v-476zM940 744l16 -4q126 36 208 176q48 92 48 180v20q-21 0 -28 -96 q-47 -153 -156 -224l-88 -48v-4zM964 836l4 -52q204 115 204 312v4h-60q0 -115 -96 -208q-52 -31 -52 -56zM1476 1012h4v8h-4v-8z" />
<glyph unicode="Z" horiz-adv-x="1605" d="M0 760v44q0 466 444 724q179 76 360 76h32q375 0 648 -368q120 -191 120 -416q0 -531 -508 -764q-145 -56 -300 -56h-8q-452 0 -712 448q-76 158 -76 312zM16 800q0 -103 40 -200h4v4q-20 82 -20 160v40q0 411 368 656q185 104 380 104h28q283 0 504 -196v4 q-204 216 -512 216q-472 0 -720 -452q-72 -173 -72 -320v-16zM132 816q0 -447 440 -640q118 -40 216 -40h20q392 0 600 384q60 127 60 272q0 404 -372 616q-147 60 -268 60h-36q-379 0 -588 -360q-72 -148 -72 -292zM196 780v32q0 357 356 548q123 48 244 48q423 0 584 -416 q28 -104 28 -188q0 -361 -348 -552q-126 -56 -268 -56h-4q-305 0 -512 300q-80 129 -80 284zM212 816q0 -95 36 -168h4q-20 91 -20 148q0 303 264 488q132 84 288 84h32q203 0 376 -148v4q-155 164 -372 164h-44q-272 0 -456 -248q-108 -160 -108 -316v-8zM316 288 q225 -192 480 -192q381 0 612 336q100 170 100 352v20q0 89 -28 200h-4v-4q12 -94 12 -192q0 -439 -424 -640q-139 -52 -268 -52q-230 0 -480 176v-4zM400 744q0 -16 60 -16h660q64 0 64 48v4l-4 68h-12l-8 -36v-52l-8 -8h-724zM428 772h716v56l-8 8h-708v-64zM468 636 q110 -208 344 -208l268 4v56q0 8 -12 8l-248 -8q-179 0 -280 144l-24 8zM496 1084l60 -12l224 4q122 0 200 -60v4q-47 76 -188 76h-88l-152 -4l-40 4q-16 -6 -16 -12zM524 1116l28 -4l260 4q153 0 252 -144l16 -8l52 4v4q-53 111 -164 172q-88 36 -224 36l-220 -4v-60z M536 488q95 -100 284 -100h244q56 0 56 44v4l-4 72h-4q-16 0 -16 -48v-40l-8 -8l-256 -4q-148 0 -296 80zM1044 936q31 -12 56 -12h12q68 0 68 36v8q0 -19 -136 -24v-8zM1472 1008h4v12h-4v-12z" />
<glyph unicode="[" horiz-adv-x="569" />
<glyph unicode="\" horiz-adv-x="569" />
<glyph unicode="]" horiz-adv-x="569" />
<glyph unicode="^" horiz-adv-x="961" />
<glyph unicode="_" />
<glyph unicode="`" horiz-adv-x="682" />
<glyph unicode="a" horiz-adv-x="1605" d="M0 772v52q0 384 356 652q211 128 432 128h32q395 0 660 -364q124 -195 124 -416v-16q0 -334 -232 -572q-232 -236 -580 -236q-418 0 -684 392q-108 179 -108 380zM20 800q0 -112 40 -208h4v4q-24 109 -24 192v32q0 407 384 652q184 92 364 92h24q278 0 504 -192v4 q-205 212 -512 212q-405 0 -664 -356q-120 -195 -120 -420v-12zM132 808q0 -409 396 -616q132 -56 280 -56q341 0 564 316q96 159 96 336v44q0 341 -352 564q-152 72 -288 72h-36q-415 0 -616 -420q-44 -118 -44 -224v-16zM196 784v56q0 259 260 464q156 104 340 104h28 q344 0 536 -356q48 -112 48 -232v-16q0 -388 -396 -572q-104 -36 -208 -36q-360 0 -560 356q-48 122 -48 232zM216 812q0 -98 40 -188h4v4q-24 80 -24 144v60q0 242 232 432q154 104 332 104h12q210 0 376 -140v4q-144 160 -400 160q-275 0 -468 -248q-104 -143 -104 -332z M312 292q214 -196 500 -196q369 0 592 336q104 171 104 392q-7 123 -24 180h-4v-4l8 -124v-28q0 -512 -456 -692q-119 -40 -228 -40q-244 0 -492 180v-4zM404 492l60 -8h20q48 0 48 52l-4 260q0 195 188 268q39 12 72 12h28q79 0 168 -64v4q-42 80 -172 80h-32 q-165 0 -252 -180q-20 -62 -20 -108l4 -240q-3 -60 -12 -60h-72q-24 -2 -24 -12v-4zM424 736l4 -212h64l-4 260q0 249 228 324l76 8h20q213 0 292 -228l12 -116l-4 -172v-76h56l8 8v240q0 325 -304 404l-68 4q-260 0 -360 -260q-20 -94 -20 -184zM596 696q0 -11 40 -16h316 q68 0 68 40v8q0 72 -12 72l-8 -12v-60q0 -21 -12 -24h-356zM624 720h348l8 8v52l-8 8h-340l-8 -8v-60zM1088 496q32 -12 68 -12h16q44 0 44 44v264q0 72 -16 136h-4v-196l-4 -220l-4 -4h-68q-29 0 -32 -12zM1476 1008h4v8h-4v-8z" />
<glyph unicode="b" horiz-adv-x="1609" d="M0 780v44q0 391 360 652q196 128 440 128h32q349 0 612 -312q164 -227 164 -508q0 -406 -400 -676q-199 -108 -420 -108q-425 0 -692 412q-96 173 -96 368zM20 780q0 -86 40 -188h4q-24 120 -28 208q0 369 304 612q217 156 472 156q269 0 512 -200v4q-212 216 -520 216 q-389 0 -644 -332q-140 -217 -140 -444v-32zM136 800q0 -400 396 -608q148 -56 280 -56q371 0 588 368q72 144 72 300q0 374 -348 584q-153 80 -284 80h-52q-333 0 -548 -300q-104 -165 -104 -368zM196 804q0 343 340 548q134 56 264 56h28q307 0 500 -300q80 -140 80 -292 v-52q0 -241 -248 -452q-156 -112 -328 -112h-64q-225 0 -428 208q-144 165 -144 396zM216 812q0 -86 40 -184h4v4q-16 35 -24 160q0 328 296 508q134 72 276 72q194 0 360 -128v4q-116 144 -360 144q-351 0 -532 -332q-60 -133 -60 -248zM324 284q210 -188 480 -188h8 q425 0 648 440q52 133 52 256q0 78 -28 204h-4v-8l8 -100v-80q0 -377 -340 -600q-155 -92 -328 -92h-8q-254 0 -488 172v-4zM404 732q15 -12 36 -12h592q56 9 56 24h-672zM428 768l8 -8h644v68h-648l-4 -20v-40zM500 388l56 -8h16l212 -4q215 0 352 160q76 126 76 208 q-18 0 -40 -100q-118 -244 -352 -244h-20l-276 4q-24 -8 -24 -16zM500 928q26 -12 56 -12h12q64 0 64 36l-4 96v8q0 8 12 8l172 4q82 0 164 -56h4q-28 72 -144 72l-44 4l-180 -4l-4 -28v-108l-8 -8h-68q-29 0 -32 -12zM528 420l4 4h4l240 -8q275 0 376 236l20 76h-56 l-36 -84q-99 -164 -276 -164l-172 4h-28q-20 10 -20 32l8 108l-4 4h-60v-208zM528 960h60v100q0 44 12 44l208 4q230 0 300 -248h64v4q-15 93 -88 188q-128 120 -296 120l-248 -4h-12v-208zM608 516h8l12 12v108l-4 4v4q-16 -4 -16 -24v-104zM1100 756h4l16 16v40l8 8h32 l16 -4q40 5 40 36v4l-12 52h-4q0 -68 -12 -68h-84l-4 -20v-64zM1476 1000h4v8h-4v-8z" />
<glyph unicode="c" horiz-adv-x="1609" d="M0 776v48q0 358 324 628q220 152 476 152h28q367 0 636 -336q144 -229 144 -484q0 -398 -400 -680q-182 -104 -384 -104q-504 0 -756 468q-68 151 -68 308zM20 796q0 -101 40 -204h4v4q-24 119 -24 196v36q0 330 280 568q230 172 492 172q276 0 512 -204v4 q-209 220 -512 220q-387 0 -648 -324q-144 -211 -144 -440v-28zM132 812q0 -430 424 -632q129 -44 252 -44q341 0 564 316q96 152 96 324v52q0 339 -324 548q-157 92 -312 92h-44q-337 0 -556 -312q-100 -169 -100 -344zM196 784v44q0 300 292 496q155 84 308 84h24 q322 0 516 -312q72 -142 72 -284v-48q0 -253 -260 -464q-152 -104 -352 -104q-291 0 -488 252q-112 154 -112 336zM212 812q0 -86 44 -180h4v4q-20 49 -28 168q0 360 372 532q108 32 200 32q209 0 376 -132v4q-148 148 -364 148h-20q-287 0 -476 -248q-108 -163 -108 -328z M316 288q226 -192 472 -192h32q279 0 500 224q188 209 188 472v36q0 86 -32 196h-4v-4q20 -108 20 -212q0 -385 -348 -604q-161 -88 -344 -88q-235 0 -484 176v-4zM444 772q0 -221 228 -332q80 -24 132 -24h20q218 0 324 208h-68q-99 -148 -260 -148q-217 0 -304 216 q-12 50 -12 88v20q0 211 224 292l88 12q160 0 272 -152h12q48 0 48 8q-120 204 -308 204h-48q-213 0 -324 -236q-24 -70 -24 -112v-44zM524 792q0 -39 28 -88h4v4q-12 31 -12 84q0 196 208 264l40 4h28q93 0 180 -60q-58 84 -180 84q-192 0 -276 -184q-20 -45 -20 -104v-4z M540 480q120 -108 276 -108q253 0 372 244l4 24h-4q-8 0 -60 -92q-126 -152 -304 -152h-24q-114 0 -260 88v-4zM1056 924q26 -12 56 -12h28q39 0 56 28v12h-4q-18 -20 -132 -20l-4 -4v-4z" />
<glyph unicode="d" horiz-adv-x="1605" d="M0 784v48q0 327 284 588q228 184 508 184h40q363 0 628 -332q144 -207 144 -432v-32q0 -455 -420 -716q-180 -92 -392 -92q-401 0 -668 368q-124 194 -124 416zM20 808q0 -109 40 -216h4v8q-24 112 -24 208q0 409 364 648q200 112 400 112q297 0 528 -212v4 q-208 228 -528 228q-431 0 -680 -388q-104 -183 -104 -384v-8zM136 788q0 -356 348 -572q146 -80 332 -80q363 0 584 360q72 161 72 312q0 389 -388 604q-141 56 -256 56h-36q-421 0 -620 -432q-36 -113 -36 -204v-44zM196 796v32q0 289 288 496q153 84 312 84h40 q328 0 516 -344q56 -112 56 -236v-28q0 -342 -320 -536q-137 -68 -292 -68q-326 0 -528 316q-72 130 -72 284zM216 800q0 -64 32 -148h4v4q-16 72 -16 148q0 284 232 460q146 104 316 104h32q217 0 376 -148v4q-143 168 -384 168q-258 0 -460 -212q-132 -158 -132 -348v-32z M252 640h4v8h-4v-8zM328 280q210 -184 476 -184q364 0 596 320q112 188 112 396q-4 87 -24 176h-4l4 -60v-108q0 -456 -432 -656q-133 -48 -256 -48q-231 0 -472 168v-4zM500 396l148 -8h120q341 0 432 300q12 48 12 88v40l-12 108h-4v-52l4 -56q0 -297 -296 -392 q-61 -12 -116 -12h-264q-24 -2 -24 -12v-4zM500 1088q0 -9 44 -16l200 4h48q102 0 188 -60q-41 68 -96 68q-23 11 -88 12h-260zM524 432l260 -4q294 0 384 284l12 96q0 239 -260 352q-77 20 -160 20l-224 -4l-12 4v-64l16 -4l236 8q231 0 320 -204q20 -66 20 -116 q0 -232 -248 -300l-76 -8h-40l-200 4l-28 -4v-60zM600 592l60 -8h24q44 0 44 56l-4 52l4 120l-4 180l-4 4h-4q-7 -6 -12 -52l4 -76v-108l-4 -148l-24 -8l-20 4h-28q-29 0 -32 -12v-4zM624 624h60v360h-56l-4 -88v-272z" />
<glyph unicode="e" horiz-adv-x="1609" d="M0 780v48q0 352 328 628q217 148 472 148h32q363 0 632 -340q144 -226 144 -484q0 -377 -368 -656q-201 -124 -444 -124q-416 0 -684 388q-112 186 -112 392zM20 796q0 -80 40 -200h4v4q-24 93 -24 196q0 419 364 660q185 108 372 108h56q264 0 496 -204v4 q-207 224 -524 224q-381 0 -640 -324q-144 -216 -144 -420v-48zM64 584h4v8h-4v-8zM132 812q0 -408 396 -620q139 -56 280 -56q359 0 584 344q76 149 76 300v52q0 335 -344 560q-158 76 -280 76h-48q-352 0 -564 -312q-100 -170 -100 -344zM196 784v44q0 357 388 544 q119 36 212 36h24q328 0 524 -324q64 -141 64 -268v-56q0 -257 -268 -464q-149 -100 -344 -100q-289 0 -488 252q-112 157 -112 336zM216 808q0 -84 40 -176h4v4q-24 76 -24 144v56q0 252 248 436q145 96 316 96q225 0 392 -144v4q-157 160 -364 160h-48q-201 0 -388 -160 q-176 -174 -176 -400v-20zM328 280q208 -184 480 -184q424 0 644 424q60 155 60 288q0 70 -28 188h-4v-8l8 -100v-68q0 -454 -432 -660q-134 -48 -244 -48q-239 0 -484 172v-4zM340 744q0 -8 40 -16l60 4h300l24 -4q64 0 64 52l-8 68l-16 -8v-28l4 -24l-8 -32l-120 -4h-220 l-76 4l-44 -8v-4zM364 772h420v60l-40 4h-380v-64zM436 932l20 -4h76q36 0 68 60q87 88 220 88h16l232 -4q52 0 52 44l-8 76q-12 0 -12 -16h-4l4 -4v-44q0 -29 -12 -32h-280q-167 0 -264 -148h-40l-44 4l-24 -8v-12zM468 636q117 -208 340 -208l268 4v60l-16 4l-216 -4h-36 q-168 0 -276 148h-64v-4zM468 968h64q113 148 264 148h104l164 -4l12 4v64l-4 -4h-4l-248 4q-242 0 -352 -212zM532 488q116 -100 292 -100h228q68 0 68 40v4l-8 76h-8l-4 -20v-44q0 -29 -12 -32h-20l-236 -4q-153 0 -296 84h-4v-4z" />
<glyph unicode="f" horiz-adv-x="1609" d="M0 796v36q0 355 328 624q221 148 472 148h32q318 0 576 -268q200 -236 200 -556q0 -388 -388 -668q-180 -112 -400 -112q-479 0 -740 440q-80 176 -80 356zM20 804q0 -112 44 -220h4v4q-28 115 -28 200v52q0 256 200 484q233 240 568 240h12q275 0 512 -204v4 q-218 224 -520 224q-368 0 -632 -304q-160 -219 -160 -480zM136 788q0 -367 368 -584q147 -68 308 -68q407 0 616 420q44 137 44 252q0 387 -372 596q-148 64 -256 64h-48q-386 0 -596 -368q-64 -145 -64 -256v-56zM196 816q0 357 356 540q127 52 244 52h28q318 0 516 -316 q72 -153 72 -304q0 -303 -304 -516q-147 -76 -300 -76q-353 0 -544 324q-68 136 -68 296zM212 812q0 -77 44 -176h4v4q-24 75 -24 140v44q0 307 316 488q119 56 256 56q203 0 360 -124v4q-57 80 -216 124q-55 16 -140 20q-294 0 -488 -244q-112 -164 -112 -336zM320 284 q223 -188 480 -188h12q360 0 588 328q112 182 112 392q0 71 -28 184h-4v-12l8 -80v-100q0 -410 -388 -628q-135 -64 -268 -64h-40q-225 0 -468 172h-4v-4zM340 740l32 -8h384l4 -4q64 8 64 24v96h-4l-16 -12l4 -52l-8 -28l-108 -4h-212l-104 4q-36 -9 -36 -16zM364 772h424 v64h-416l-8 -8v-56zM404 492l64 -8q60 5 60 20l4 88l-4 60h-4l-12 -4v-96q0 -44 -12 -44h-64q-29 0 -32 -12v-4zM428 524h64v116h-64v-116zM436 936q47 -12 80 -12q56 0 92 72q83 80 212 80h52l192 -4l52 16l4 72l-4 32q-16 -6 -16 -12v-60q0 -21 -12 -24h-64l-204 4 q-176 0 -268 -148l-20 -4h-28l-44 4q-24 -8 -24 -16zM472 968h60q108 152 308 152l236 -8l4 4v64l-4 -4h-4l-256 4q-242 0 -344 -212z" />
<glyph unicode="g" horiz-adv-x="1609" d="M0 788v40q0 372 356 648q206 128 432 128h44q361 0 624 -324q152 -224 152 -496q0 -389 -384 -668q-202 -116 -436 -116q-412 0 -684 400q-104 184 -104 388zM20 800q0 -100 36 -200h4v4q-20 100 -20 188q0 442 396 684q171 88 368 88h4q295 0 520 -200v4 q-207 220 -520 220q-402 0 -648 -336q-140 -208 -140 -452zM136 780q0 -343 348 -564q162 -80 328 -80q390 0 604 396q56 128 56 260q0 426 -404 624q-123 52 -240 52h-36q-370 0 -580 -352q-76 -151 -76 -280v-56zM196 784v28q0 314 300 516q149 80 296 80h28 q275 0 476 -248q116 -159 116 -368q0 -281 -256 -484q-161 -112 -352 -112q-326 0 -532 308q-76 131 -76 280zM212 808q0 -76 40 -164h4v4q-20 65 -20 144v24q0 330 336 504q113 48 212 48h52q177 0 356 -148q-144 172 -392 172q-340 0 -524 -328q-64 -145 -64 -256z M324 284q217 -188 468 -188h8q452 0 664 452q48 129 48 256q0 76 -28 196h-4v-4q12 -94 12 -164q0 -436 -392 -652q-155 -64 -296 -64q-236 0 -480 172v-4zM428 804q0 -250 252 -356q64 -20 116 -20h20q190 0 320 204v8h-68q-99 -148 -256 -148h-12q-224 0 -304 236l-4 60 v40q0 156 164 252q65 36 156 36h68l200 -4l4 28l-4 36l-288 4q-209 0 -332 -216q-32 -87 -32 -160zM512 792q0 -22 24 -68h4v4l-8 80v8q0 183 216 256l56 4l272 -4q48 0 48 48l-8 72h-4q-12 0 -12 -44v-44q0 -9 -52 -12l-228 8q-231 0 -300 -220l-8 -56v-32zM524 500 q117 -112 276 -112h8q246 0 372 248v20h-8q-105 -192 -252 -232q-64 -16 -116 -16q-124 0 -280 92zM796 744q0 -10 52 -16l40 4h280l56 -4q56 11 56 24v40l4 16l-4 16v24h-4q-16 -6 -16 -12l4 -52q0 -28 -28 -28l-60 -4h-256l-84 4zM824 772h420v64h-420v-64zM1476 1004h4v8 h-4v-8z" />
<glyph unicode="h" horiz-adv-x="1609" d="M0 788v40q0 388 376 660q191 116 420 116h32q343 0 600 -292q180 -223 180 -520q0 -397 -368 -664q-204 -128 -448 -128q-389 0 -668 364q-124 197 -124 424zM20 800q0 -107 40 -208h4v4q-24 119 -24 196v24q0 376 336 624q199 124 408 124h36q278 0 516 -208v4 q-219 228 -532 228q-395 0 -660 -352q-124 -198 -124 -436zM132 808q0 -414 400 -616q138 -56 268 -56q406 0 616 396q56 139 56 280q0 322 -292 544q-172 116 -364 116q-412 0 -620 -384q-64 -155 -64 -280zM196 788v36q0 264 240 464q171 120 356 120h20q350 0 544 -348 q56 -132 56 -260q0 -306 -288 -516q-151 -84 -300 -84h-44q-301 0 -500 292q-84 140 -84 296zM212 812q0 -80 40 -168h4v4q-20 59 -20 140v12q0 350 344 528q118 40 200 40h52q186 0 360 -148v4q-147 168 -400 168q-302 0 -500 -296q-80 -143 -80 -284zM316 288 q221 -192 484 -192h4q401 0 620 368q84 155 84 360q0 75 -20 164h-4v-4l8 -140q0 -507 -468 -692q-122 -36 -228 -36q-226 0 -480 176v-4zM452 448q32 -12 68 -12h16q44 0 44 44v456l-4 208h-4l-12 -4v-668l-12 -12h-64q-29 0 -32 -12zM476 480h64v652h-60l-4 -20v-632z M648 744q4 -12 24 -12h176l36 -4q88 0 88 44v56l-4 20l-16 -12v-72q0 -12 -104 -12h-172l-28 -4v-4zM672 780l8 -8h252v64h-256l-4 -28v-28zM1040 448q32 -12 68 -12h16q44 0 44 36v488l-4 188l-16 -8v-672l-8 -8h-68q-29 0 -32 -12zM1064 480h64v444l4 4l-4 4v200h-60 l-4 -20v-632zM1476 1012h4v8h-4v-8zM1480 992h4v12h-4v-12z" />
<glyph unicode="i" horiz-adv-x="1609" d="M0 792v36q0 376 360 652q204 124 436 124h32q358 0 616 -312q164 -222 164 -508q0 -385 -356 -652q-210 -132 -460 -132q-306 0 -556 232q-236 237 -236 560zM20 788q0 -103 48 -216h4v4q-32 101 -32 212q0 437 388 684q185 92 352 92h48q266 0 500 -200v4 q-212 220 -520 220q-390 0 -640 -324q-148 -222 -148 -440v-36zM72 560h4v8h-4v-8zM136 788q0 -319 288 -532q175 -120 384 -120q404 0 616 412q48 123 48 240q0 433 -404 628q-123 52 -240 52h-36q-261 0 -452 -184q-204 -207 -204 -460v-36zM196 808q0 341 336 540 q139 60 260 60h28q314 0 512 -304q80 -140 80 -316q0 -330 -340 -532q-143 -60 -268 -60q-338 0 -540 324q-68 136 -68 288zM212 808q2 -80 44 -172h4v4q-24 72 -24 144v44q0 271 268 456q139 84 296 84h12q208 0 376 -144v4q-149 164 -384 164q-362 0 -540 -356 q-52 -129 -52 -228zM340 276q198 -180 452 -180h8q452 0 664 452q48 125 48 256q0 82 -28 196h-4v-4l12 -188q0 -395 -376 -620q-147 -72 -312 -72q-230 0 -460 160h-4zM648 396l60 -8h200q64 0 64 36v72l-8 8l-12 -4v-80l-8 -8l-128 -4l-140 4q-28 -5 -28 -16zM648 1084 q40 -12 92 -12h156q76 0 76 36v64l-4 20l-16 -12v-76l-8 -8h-276l-20 -4v-8zM672 468l4 -40h260v64h-260zM672 1116l80 -4l140 4h44v56l-8 8h-248l-8 -8v-56zM748 592l48 -8h20q38 0 56 16l4 160v88l-4 148q-16 -6 -16 -12v-352q0 -22 -20 -28l-52 4l-36 -8v-8zM772 624h64 v356h-60l-4 -140v-216z" />
<glyph unicode="j" horiz-adv-x="1609" d="M0 792v36q0 377 360 652q204 124 436 124h32q377 0 636 -340q144 -212 144 -480q0 -386 -360 -656q-214 -128 -452 -128q-398 0 -664 356q-132 196 -132 436zM16 812q0 -111 48 -224h4v4q-28 101 -28 184v48q0 385 368 636q188 108 396 108q291 0 528 -208v4 q-217 224 -520 224q-358 0 -608 -276q-188 -248 -188 -500zM68 576h4v8h-4v-8zM136 784q0 -346 340 -564q167 -84 324 -84q394 0 608 380q64 128 64 272q0 428 -396 624q-127 56 -236 56h-52q-364 0 -576 -352q-76 -143 -76 -288v-44zM196 808q0 342 336 540q131 60 260 60 h36q350 0 536 -364q48 -136 48 -252q0 -318 -312 -520q-146 -76 -296 -76q-338 0 -540 324q-68 137 -68 288zM216 792q0 -84 36 -140v4q-16 92 -16 132v28q0 307 300 488q119 64 252 64h56q171 0 332 -132v4q-118 152 -372 152q-295 0 -476 -244q-112 -161 -112 -356z M340 272q206 -176 452 -176h8q408 0 628 376q84 163 84 332v8q0 91 -28 192h-4v-4l12 -196q0 -410 -392 -620q-135 -64 -268 -64h-56q-201 0 -436 156v-4zM432 780q0 -116 108 -248q111 -100 244 -100h40q223 0 328 236q28 90 28 204v160l-4 48h-60v-256q0 -227 -196 -316 q-63 -16 -112 -16h-16q-219 0 -292 248l-8 44h-60v-4zM520 504q121 -116 284 -116q276 0 392 280q24 94 24 180v8q0 156 -8 240l-12 -12v-216q0 -340 -256 -432q-50 -24 -128 -24h-16q-124 0 -280 92zM520 776l16 -44h4v8q-7 60 -16 60l-4 -4v-20z" />
<glyph unicode="k" horiz-adv-x="1609" d="M0 796v36q0 363 344 636q207 136 452 136h32q380 0 648 -352q132 -212 132 -468q0 -343 -292 -604q-224 -180 -524 -180q-371 0 -636 324q-156 209 -156 472zM20 812q0 -142 56 -244v4q-32 101 -32 208v44q0 367 340 620q196 120 400 120h44q276 0 512 -212v4 q-218 228 -500 228h-24l-4 4l-4 -4h-32q-271 0 -504 -200q-252 -250 -252 -572zM136 792q0 -386 400 -600q142 -56 272 -56q261 0 460 192q204 192 204 460q0 429 -404 628q-128 52 -240 52h-36q-390 0 -600 -392q-56 -133 -56 -252v-32zM196 812q0 340 340 536 q120 60 264 60h28q322 0 516 -320q68 -145 68 -300q0 -314 -312 -516q-145 -76 -296 -76q-310 0 -512 280q-96 149 -96 336zM212 812q0 -72 40 -164h4v4q-20 73 -20 144v20q0 321 328 504q121 48 228 48h48q177 0 344 -136v4q-141 156 -384 156q-371 0 -544 -376 q-44 -121 -44 -204zM256 636h4v8h-4v-8zM340 272q202 -176 468 -176q385 0 612 360q92 161 92 360q0 85 -32 208h-4v-4q16 -81 16 -188q0 -470 -440 -672q-126 -40 -220 -40h-68q-188 0 -424 156v-4zM500 388q42 -12 80 -12q52 0 52 48l-4 56l4 308l-4 364l-4 28l-12 -4 l-4 -64l4 -376l-4 -328l-12 -8h-64q-29 0 -32 -12zM528 420h64v748h-64v-748zM724 792q0 -281 324 -356l32 -4v64q-119 0 -232 112q-64 87 -64 196q0 217 216 292q52 16 80 16v64h-8q-165 0 -296 -176q-52 -93 -52 -180v-28zM804 812q0 -56 32 -92v4l-12 84q0 184 200 252 q92 15 92 40l4 48l-4 48q-16 -6 -16 -28v-64q0 -10 -52 -12q-129 -34 -196 -120q-48 -86 -48 -160zM812 500q145 -108 260 -108h16q32 0 32 32l-4 88q-16 -5 -16 -36v-56l-8 -8q-112 0 -276 92h-4v-4z" />
<glyph unicode="l" horiz-adv-x="1605" d="M0 796v36q0 350 312 612q216 160 476 160h40q394 0 660 -376q116 -209 116 -432v-16q0 -401 -380 -664q-208 -116 -436 -116q-396 0 -668 368q-120 195 -120 428zM16 804q0 -101 44 -212h4v4q-24 75 -24 172v48q0 400 376 652q189 96 364 96h52q261 0 492 -200 q-198 224 -520 224q-414 0 -664 -360q-124 -216 -124 -424zM136 784q0 -369 372 -580q145 -68 296 -68q426 0 628 432q36 113 36 204v28q0 396 -380 612q-141 56 -256 56h-40q-401 0 -604 -396q-52 -131 -52 -232v-56zM196 792v32q0 316 312 512q137 72 284 72h32 q340 0 528 -340q56 -137 56 -272v-12q0 -306 -296 -504q-140 -80 -292 -80h-44q-280 0 -480 264q-100 147 -100 328zM212 808q0 -61 32 -152h4v4q-12 55 -12 100v48q0 340 324 512q112 48 224 48h36q202 0 360 -136h4q-138 160 -372 160q-344 0 -536 -316q-64 -136 -64 -268 zM328 276q211 -180 472 -180q434 0 648 416q60 137 60 292q0 94 -28 208h-4v-8q12 -65 12 -140v-48q0 -434 -404 -640q-137 -56 -256 -56h-52q-208 0 -448 160v-4zM500 388l60 -12l80 4h296l124 -4q60 0 60 56v32l-4 32l-16 -12v-72l-4 -4v-4l-128 -4h-444q-24 -2 -24 -12z M500 584l60 -12q45 4 64 16l4 220v168l-4 208l-16 -8v-416l-4 -160l-4 -4h-76q-24 -2 -24 -12zM524 420h556v60l-88 4h-460l-8 -8v-56zM524 616h64v552h-56l-8 -8v-544zM1472 1016h4v8h-4v-8z" />
<glyph unicode="m" horiz-adv-x="1609" d="M0 776v52q0 393 376 660q198 116 424 116h32q381 0 648 -360q128 -194 128 -432q0 -477 -460 -740q-159 -72 -348 -72q-412 0 -684 376q-116 198 -116 400zM20 800q0 -79 36 -196h4v4q-20 97 -20 180q0 479 440 708q161 68 296 68h64q251 0 480 -196v4q-202 216 -516 216 q-400 0 -660 -352q-124 -198 -124 -436zM60 592h4v8h-4v-8zM132 804q0 -330 296 -556q174 -112 368 -112q420 0 624 404q52 118 52 240v32q0 255 -184 452q-215 204 -444 204h-56q-408 0 -612 -432q-44 -131 -44 -232zM196 784v40q0 294 304 508q145 76 300 76h20 q283 0 484 -256q108 -143 108 -340q0 -378 -364 -568q-112 -48 -248 -48q-327 0 -528 308q-76 136 -76 280zM212 804q0 -72 40 -160h4v4q-20 73 -20 132v52q0 262 268 456q142 80 288 80h32q197 0 368 -148v4q-141 168 -384 168q-362 0 -540 -344q-56 -126 -56 -244z M328 280q210 -184 472 -184q346 0 580 292q132 186 132 408v16q0 73 -20 168h-4v-4l4 -104v-20q0 -513 -456 -696q-105 -40 -236 -40q-236 0 -472 168v-4zM404 492l76 -8h8q48 2 48 48l-4 232v32q0 161 140 248l8 28l-4 88h-4q-12 -4 -12 -24v-64q-152 -129 -152 -268v-20 l8 -212q-3 -64 -12 -64h-76q-24 -2 -24 -12v-4zM428 788l4 -260h64l-4 180v100q0 161 144 260l4 4v36q0 28 -8 28q-204 -111 -204 -348zM748 328l76 -12q52 0 52 56v880l-8 8l-12 -16v-612l-4 -288l-4 -4h-4l-60 4q-36 -5 -36 -16zM772 360h64v880h-56l-8 -8v-872zM948 1040 l32 -28h4q-13 28 -36 28zM968 1076q148 -112 148 -276l4 -32l-8 -208l4 -32h60l4 272q0 230 -212 336v-60zM1088 496q32 -12 68 -12h16q48 0 48 52l-4 68l4 176q0 70 -16 144h-4v-100l-4 -296q-5 -20 -12 -20h-64q-29 0 -32 -12z" />
<glyph unicode="n" horiz-adv-x="1605" d="M0 784v44q0 376 356 648q204 128 432 128h32q418 0 684 -400q100 -191 100 -360v-76q0 -380 -388 -656q-185 -112 -404 -112q-448 0 -704 396q-108 188 -108 388zM20 812q0 -113 40 -216h4v4q-24 116 -24 208q0 378 320 620q192 136 440 136h8q282 0 504 -188v4 q-204 208 -504 208q-390 0 -644 -328q-144 -206 -144 -440v-8zM132 812q0 -426 420 -628q138 -48 248 -48q394 0 608 380q64 132 64 284q0 363 -328 576q-156 92 -300 92h-56q-250 0 -456 -188q-200 -215 -200 -468zM196 796v28q0 299 288 500q153 84 308 84h28 q302 0 504 -288q84 -137 84 -288v-48q0 -314 -308 -512q-128 -76 -296 -76q-314 0 -520 284q-88 149 -88 316zM212 816q0 -85 40 -172h4v4q-20 64 -20 152q0 346 320 516q115 52 232 52h40q181 0 356 -140v4q-147 160 -380 160q-369 0 -544 -356q-48 -117 -48 -220zM324 284 q210 -188 484 -188q373 0 600 344q100 173 100 352v48q0 79 -28 180h-4v-4q12 -66 16 -168q0 -484 -436 -688q-124 -40 -220 -40h-60q-214 0 -452 168v-4zM400 496l80 -12q56 0 56 64v12l-8 192v8q0 209 144 284q69 32 132 32q95 0 176 -60h4q-57 80 -164 80h-40 q-152 0 -240 -160q-32 -86 -32 -144l4 -236q-2 -48 -16 -48h-32l-24 4q-40 -7 -40 -16zM428 528h64l-4 260q0 229 220 316q42 12 84 12h20q210 0 288 -220q16 -75 16 -168v-200h60l4 108v76q0 316 -172 408q-87 60 -204 60h-12q-247 0 -340 -256q-24 -64 -24 -180v-216z M1088 496q44 -12 76 -12q56 0 56 56l-4 84l4 64q0 148 -24 252h-4v-12l8 -312l-4 -104l-4 -4h-80q-24 -2 -24 -12z" />
<glyph unicode="o" horiz-adv-x="1609" d="M0 788v40q0 329 288 596q219 180 512 180h32q355 0 620 -324q156 -217 156 -496q0 -421 -416 -688q-178 -96 -380 -96q-481 0 -736 452q-76 177 -76 336zM20 816q0 -107 44 -228h4v4q-28 91 -28 204q0 434 392 676q183 92 344 92h60q243 0 476 -188v4q-193 204 -480 204 h-52q-372 0 -628 -336q-132 -205 -132 -432zM132 812q0 -425 420 -628q141 -48 248 -48q400 0 612 388q60 125 60 280q0 287 -224 496q-200 168 -404 168h-56q-297 0 -516 -256q-140 -187 -140 -400zM196 816q0 321 308 520q148 72 288 72h28q320 0 520 -316 q72 -148 72 -296q0 -340 -344 -544q-123 -56 -264 -56q-292 0 -500 260q-108 150 -108 360zM216 816q0 -112 44 -184v4q-24 84 -24 160v24q0 215 156 380q168 168 412 168h12q198 0 368 -140v4q-146 160 -380 160q-306 0 -500 -272q-88 -150 -88 -304zM328 280 q215 -184 488 -184q391 0 616 384q76 141 76 304v44q0 90 -28 188h-4v-4q12 -46 16 -168q0 -453 -400 -668q-137 -56 -256 -56h-52q-211 0 -456 164v-4zM428 800q0 -214 208 -336q87 -32 160 -32h16q224 0 336 220q32 76 32 156q0 216 -212 328v-60q148 -120 148 -264v-12 q0 -206 -208 -292q-44 -16 -104 -16h-8q-209 0 -292 228l-8 56v36q0 156 136 252l8 20l-4 52q-208 -109 -208 -336zM512 812q0 -38 24 -84h4l-8 72q0 158 136 240l12 44l-4 60v16h-4q-16 0 -16 -48v-48l-76 -68q-68 -89 -68 -184zM524 496q115 -108 280 -108q251 0 376 240 q40 91 40 168q-4 64 -20 128h-4v-4l4 -84v-12q0 -299 -288 -400q-40 -12 -92 -12h-28q-115 0 -268 84zM744 788l64 -8h28q33 0 40 40l-4 108v332l-20 -16v-432q0 -7 -20 -12l-56 4h-4l-28 -8v-8zM772 824h60v416h-60v-416zM944 1044l40 -36q-20 36 -40 36z" />
<glyph unicode="p" horiz-adv-x="1609" d="M0 788v36q0 346 316 620q208 160 488 160h28q380 0 648 -360q128 -205 128 -432q0 -458 -408 -708q-180 -104 -408 -104q-360 0 -632 320q-160 202 -160 468zM20 804q0 -108 44 -224h4v4q-28 95 -28 212q0 452 432 696q162 72 304 72h52q270 0 496 -200q-89 132 -332 200 q-84 20 -156 20h-60q-403 0 -660 -404q-96 -175 -96 -376zM136 780q0 -313 304 -540q163 -104 340 -104h4q436 0 632 396q56 124 56 272q0 439 -448 632q-106 32 -176 32h-48q-338 0 -552 -292q-112 -162 -112 -396zM196 816q0 312 312 520q147 72 296 72h32q269 0 472 -264 q104 -148 104 -332q0 -393 -388 -576q-120 -40 -228 -40q-293 0 -496 264q-104 151 -104 356zM216 792q0 -74 36 -152h4v4q-20 74 -20 156v8q0 309 292 492q133 68 256 68h36q190 0 360 -136v4q-125 152 -368 152q-381 0 -552 -360q-44 -123 -44 -236zM332 276 q206 -180 452 -180h28q303 0 536 252q164 195 164 464q-8 130 -28 200h-4v-4q12 -100 12 -192q0 -424 -380 -628q-162 -72 -320 -72q-228 0 -460 164v-4zM404 728l60 -8h460l236 -4q60 0 60 48v4q0 75 -20 160h-4v-4l4 -116q0 -47 -8 -64l-328 -4h-320l-116 4 q-24 -8 -24 -16zM428 764h752q0 408 -452 408l-200 -4v-208h60v100q0 28 8 44l120 4h32q264 0 348 -192q12 -35 16 -84l-4 -4l-168 -4h-512v-60zM500 932q0 -10 72 -20q60 6 60 36l-4 104v4q0 12 44 12h60q174 0 256 -64v4q-45 80 -232 80h-80l-68 -4v-136q0 -8 -24 -12 l-56 4zM504 388q16 -8 72 -12q56 0 56 44l-4 124v100q-18 -8 -20 -16v-204q0 -21 -12 -24h-36l-16 4q-40 -7 -40 -16zM524 540l4 -120h60v208h-56z" />
<glyph unicode="q" horiz-adv-x="1609" d="M0 812v32q0 362 376 640q187 120 440 120h24q317 0 588 -292q180 -219 180 -512v-36q0 -322 -312 -600q-224 -164 -508 -164q-356 0 -628 320q-160 216 -160 492zM24 776q0 -89 40 -192h4v4q-28 109 -28 200q0 452 416 696q163 80 340 80h28q281 0 512 -212v4 q-214 232 -532 232q-357 0 -612 -296q-168 -222 -168 -460v-56zM136 812q0 -468 484 -652q103 -24 184 -24q385 0 596 360q72 142 72 300v20q0 310 -280 536q-170 116 -356 116h-44q-296 0 -504 -240q-152 -196 -152 -416zM200 784v56q0 221 196 416q175 152 408 152h4 q380 0 564 -380q40 -119 40 -228v-16q0 -314 -308 -512q-138 -76 -296 -76q-324 0 -528 296q-80 138 -80 292zM216 796q0 -65 40 -160h4v4q-24 77 -24 168q0 305 296 496q131 64 272 64h8q193 0 360 -128v4q-44 69 -164 108q-91 36 -180 36h-56q-286 0 -480 -292 q-76 -156 -76 -260v-40zM320 288q212 -192 484 -192q407 0 640 392q68 159 68 324q0 80 -24 180h-4v-4l8 -120v-32q0 -484 -440 -672q-127 -48 -248 -48q-243 0 -484 176v-4zM428 800q0 -199 180 -320q88 -48 172 -48h36q46 0 104 16v4l-48 48l-60 -4h-20q-206 0 -288 216 q-12 29 -12 80v20q0 202 208 288q44 16 104 16h4q218 0 300 -228q8 -18 8 -52v-32l-8 -64q0 -23 52 -52q16 71 16 128q0 246 -260 344q-67 20 -136 20q-203 0 -320 -224q-32 -84 -32 -156zM512 804q0 -53 32 -88v4l-12 84q0 196 204 264l76 8q84 0 172 -60q-16 43 -76 64 q-57 16 -88 16h-16q-225 0 -288 -244zM532 492q116 -104 264 -104q172 9 172 48v16q-59 -44 -156 -44q-127 0 -276 84h-4zM800 768q140 -152 292 -292q40 27 40 44l-296 288q-10 -4 -36 -40zM1052 456l32 -24h12q24 0 80 72v12l-8 8q-62 -80 -100 -80l-16 16v-4zM1108 676 l16 -12v4q0 6 -16 12v-4zM1144 644l24 -8q48 31 48 180q0 54 -16 112h-4v-32l4 -52q-7 -192 -48 -192z" />
<glyph unicode="r" horiz-adv-x="1605" d="M0 800v32q0 360 344 632q202 136 460 136h28q357 0 624 -332q148 -206 148 -432v-64q0 -387 -376 -656q-201 -116 -420 -116h-52q-346 0 -624 348q-132 202 -132 452zM20 776q0 -73 36 -176h4v4q-20 84 -20 176v16q0 426 384 668q181 96 352 96h52q256 0 492 -196v4 q-195 212 -496 212h-48q-406 0 -664 -400q-92 -176 -92 -340v-64zM136 792q0 -376 356 -588q141 -72 292 -72h8q396 0 620 384q60 141 60 276q0 438 -432 632q-108 40 -196 40h-44q-390 0 -604 -376q-60 -131 -60 -268v-28zM196 800v20q0 285 276 492q157 92 324 92h28 q302 0 504 -300q80 -135 80 -268v-56q0 -337 -340 -528q-137 -56 -256 -56h-48q-237 0 -448 236q-120 158 -120 368zM216 788q0 -72 36 -156h4v4q-20 76 -20 148v44q0 242 232 432q146 104 316 104h32q204 0 368 -144v4q-124 160 -368 160h-12q-378 0 -548 -368 q-40 -115 -40 -196v-32zM312 284q220 -192 472 -192h20q337 0 572 292q132 180 132 388v56q0 82 -28 180h-4v-4q12 -71 16 -172q0 -496 -472 -684q-108 -36 -228 -36q-227 0 -480 176v-4zM400 728q37 -12 92 -12h40l160 4l8 12v4l-28 4l-204 -4l-52 4q-16 -6 -16 -12z M424 760l24 -4l136 4h4l128 -4q57 -174 112 -220q118 -108 252 -108v60q-107 0 -220 100q-64 93 -64 160q17 12 100 12h280v28q0 273 -264 360q-65 16 -180 20l-208 -4v-208h20l4 -4l4 4h36v96q0 52 36 52h124q278 0 348 -204q12 -26 12 -64v-4l-4 -4v-4l-160 -4h-520v-60z M500 384q36 -12 76 -12q56 0 56 52l-4 48v164l-8 8q-12 -20 -12 -40v-200l-8 -8h-76q-24 -2 -24 -12zM500 920l80 -12q52 5 52 48l-8 88q0 20 68 20h40q186 0 256 -64v4q-47 80 -216 80h-60q-104 0 -104 -12v-128l-12 -12h-12l-56 4q-28 -7 -28 -16zM524 416h64v208h-60 l-4 -80v-128zM816 492q140 -108 272 -108q32 0 32 60l-4 56h-4l-12 -4v-64q0 -24 -16 -24q-104 0 -268 88v-4zM816 736l20 -24l28 4h92l200 -4q64 0 64 52v24q0 42 -20 128h-4v-168q0 -12 -92 -12h-288z" />
<glyph unicode="s" horiz-adv-x="1605" d="M0 804v32q0 372 360 644q200 124 436 124h32q406 0 676 -404q100 -181 100 -368v-52q0 -413 -408 -680q-184 -100 -396 -100q-426 0 -700 404q-100 192 -100 400zM20 808q0 -129 48 -240h4v4q-32 93 -32 200v32q0 454 432 692q165 68 308 68h40q261 0 492 -188v4 q-205 208 -512 208q-396 0 -652 -344q-128 -193 -128 -436zM136 792q0 -388 388 -596q139 -60 276 -60q410 0 620 404q48 133 48 240v56q0 290 -268 504q-184 128 -360 128h-56q-319 0 -524 -276q-124 -177 -124 -360v-40zM196 800q0 375 360 560q119 48 240 48h24 q325 0 532 -336q56 -131 56 -232v-60q0 -336 -348 -528q-132 -56 -256 -56q-330 0 -532 300q-76 148 -76 304zM216 804q0 -79 40 -176h4v4q-20 56 -28 176q0 332 332 512q112 48 232 48h20q198 0 364 -140h4q-141 164 -380 164q-338 0 -536 -332q-52 -123 -52 -220v-36z M336 272q204 -176 468 -176q372 0 604 340q100 176 100 352v48q0 71 -24 164h-4v-4l8 -120v-28q0 -523 -480 -704q-103 -28 -200 -28q-233 0 -472 160v-4zM400 740l36 -12l48 4h364l284 -4q52 0 52 48l-8 76q-16 0 -16 -60v-28q0 -12 -104 -12h-632q-24 -2 -24 -12zM428 772 h716v64h-716v-64zM432 936q48 -12 88 -12q44 0 72 52q87 100 200 100l288 -4q40 0 40 48l-8 68h-4l-12 -16l4 -44q-2 -32 -12 -32h-288q-159 0 -252 -144l-20 -4h-48l-16 4q-32 -8 -32 -16zM472 968h60q102 152 308 152l240 -8v64l-288 4q-211 0 -320 -208v-4zM500 396 l40 -8l60 4l160 -4q306 0 408 232l12 40q-20 -7 -64 -92q-113 -160 -324 -160l-236 4l-4 4h-4l-48 -12v-8zM524 432l276 -4q225 0 336 212h-68q-99 -148 -276 -148h-20l-208 4l-40 -4v-60z" />
<glyph unicode="t" horiz-adv-x="1605" d="M0 796v36q0 379 360 648q207 124 436 124h32q387 0 648 -360q128 -205 128 -432v-44q0 -394 -392 -660q-181 -108 -408 -108q-403 0 -680 364q-124 199 -124 432zM20 800q0 -106 44 -220h4v4q-28 84 -28 184v52q0 430 424 668q165 76 320 76h40q277 0 504 -204v4 q-212 224 -508 224h-12q-403 0 -664 -348q-124 -199 -124 -392v-48zM68 568h4v8h-4v-8zM136 784q0 -347 352 -572q156 -76 300 -76h28q382 0 600 392q52 135 52 260v32q0 358 -340 568q-163 84 -320 84q-332 0 -552 -276q-120 -184 -120 -364v-48zM196 780v40q0 333 348 536 q129 52 244 52h44q341 0 520 -344q56 -119 56 -252v-36q0 -272 -268 -480q-155 -100 -336 -100q-371 0 -568 376q-40 112 -40 208zM212 812q0 -76 36 -164h4v4q-16 61 -16 116v56q0 261 260 460q158 88 312 88q207 0 368 -136h4q-124 156 -360 156q-388 0 -568 -372 q-40 -124 -40 -208zM324 284q208 -188 480 -188q406 0 636 392q68 143 68 324q0 92 -28 200h-4v-8q12 -65 12 -140v-48q0 -420 -376 -628q-149 -72 -308 -72q-244 0 -480 172v-4zM500 1084l16 -8l476 -4h40q88 0 88 36v8l-4 80h-4q-12 -2 -12 -32v-56q0 -12 -84 -12h-200 l-224 4l-76 -4zM524 1116h556v64h-552l-4 -20v-44zM744 404q0 -14 80 -16q52 0 52 36l-4 220v356h-4q-13 0 -16 -48l4 -276l-4 -260l-4 -4h-76zM772 432h64v548h-64v-548z" />
<glyph unicode="u" horiz-adv-x="1605" d="M0 804v36q0 352 344 628q202 136 448 136h36q385 0 652 -364q124 -201 124 -416v-52q0 -360 -360 -644q-195 -128 -432 -128h-8q-423 0 -692 384q-112 199 -112 420zM16 824q0 -91 44 -232h4v4q-24 88 -24 192v8q0 433 388 676q172 96 384 96q277 0 516 -208v4 q-211 224 -528 224q-461 0 -708 -448q-76 -170 -76 -316zM136 800q0 -399 388 -600q132 -64 268 -64h32q342 0 572 356q72 148 72 288v56q0 340 -360 564q-162 72 -296 72q-451 0 -648 -460q-28 -106 -28 -180v-32zM196 804v12q0 325 312 520q141 72 288 72h16 q359 0 548 -356q48 -120 48 -232v-48q0 -289 -304 -496q-128 -80 -292 -80h-4q-330 0 -540 312q-72 141 -72 296zM216 808q0 -90 40 -180h4v4q-21 59 -28 176q0 342 348 520q122 44 228 44q199 0 368 -140v4q-127 156 -372 156q-233 0 -412 -168q-176 -172 -176 -412v-4z M324 284q216 -188 480 -188q402 0 636 396q68 158 68 304v40q0 82 -28 180h-4v-4q12 -65 16 -164q0 -323 -192 -516q-217 -216 -500 -216q-227 0 -476 172v-4zM424 920q0 -335 172 -432q88 -60 208 -60q253 0 348 256q28 81 28 252v144h-64l-4 -16l4 -216v-12 q0 -240 -192 -324q-55 -20 -116 -20h-12q-204 0 -288 204q-20 67 -20 148l4 236h-64zM504 876q0 -80 28 -152h4v4l-8 100l4 240l-4 24h-4q-12 -4 -12 -24zM524 496q117 -108 280 -108q269 0 384 268q32 100 32 260l-8 180l-16 -20l4 -68v-84q0 -391 -244 -488 q-79 -24 -132 -24h-48q-92 0 -252 88v-4z" />
<glyph unicode="v" horiz-adv-x="1609" d="M0 804v32q0 366 360 644q200 124 436 124h32q365 0 632 -336q148 -215 148 -476q0 -300 -236 -552q-229 -240 -556 -240h-24q-388 0 -672 372q-120 202 -120 432zM16 828q0 -113 52 -252h4v4q-36 119 -36 232q0 374 352 636q196 116 388 116h64q244 0 472 -192v4 q-197 212 -512 212q-427 0 -680 -396q-104 -200 -104 -364zM136 800q0 -417 412 -612q119 -52 240 -52h36q333 0 552 324q96 157 96 336q0 370 -344 592q-161 80 -288 80h-48q-364 0 -576 -344q-80 -142 -80 -292v-32zM196 804v20q0 277 252 472q163 112 344 112h24 q347 0 540 -348q52 -127 52 -244v-48q0 -306 -340 -512q-111 -60 -256 -60h-12q-313 0 -520 296q-84 141 -84 312zM216 808q0 -87 40 -176h4v4q-20 53 -28 168q0 342 340 520q112 44 220 44h28q186 0 348 -128q-50 85 -196 128q-93 24 -168 24q-352 0 -544 -352 q-44 -115 -44 -204v-28zM324 284q222 -188 456 -188h44q356 0 592 352q92 167 92 348v28q0 88 -28 192h-4v-8q12 -69 16 -168q0 -460 -412 -668q-135 -56 -272 -56q-241 0 -484 172v-4zM500 400q29 -12 80 -12q48 0 48 40v368l4 32l-4 32v116l-4 120l-16 -12v-664l-8 -8h-68 q-29 0 -32 -12zM528 432h64v160l-4 488h-60v-648zM696 396l36 -8q143 0 288 140q100 128 100 280l-4 292l-20 -12l4 -220v-44q0 -263 -240 -384q-51 -20 -160 -32l-4 -4v-8zM724 432q75 0 200 64q156 120 156 324l-4 260h-60v-172l4 -60q0 -253 -196 -332q-60 -20 -100 -24 v-60zM1472 1020h4v8h-4v-8z" />
<glyph unicode="w" horiz-adv-x="1605" d="M0 804v32q0 353 324 620q214 148 472 148h32q392 0 652 -368q124 -185 124 -416v-20q0 -385 -336 -652q-201 -148 -452 -148h-16q-411 0 -680 372q-120 197 -120 432zM20 792q0 -84 44 -208h4v4q-28 86 -28 204v16q0 454 440 692q175 68 324 68q273 0 508 -192v4 q-204 208 -508 208q-368 0 -628 -308q-156 -207 -156 -428v-60zM136 792q0 -252 172 -436q224 -220 480 -220h36q301 0 524 284q120 167 120 372v44q0 329 -340 552q-154 80 -296 80h-40q-415 0 -616 -428q-40 -115 -40 -196v-52zM196 804v12q0 289 256 484q163 108 340 108 h24q309 0 512 -292q80 -144 80 -304v-28q0 -279 -256 -480q-151 -108 -340 -108h-8q-298 0 -500 256q-108 152 -108 352zM216 796q0 -67 32 -148h4v4q-16 61 -16 152q0 341 324 512q121 56 244 56q206 0 376 -144v4q-130 160 -372 160q-334 0 -516 -296q-76 -142 -76 -264 v-36zM324 284q224 -188 460 -188h40q335 0 568 316q116 169 116 416q0 87 -28 192h-4v-4q12 -45 12 -128v-52q-3 -493 -456 -684q-118 -36 -232 -36q-230 0 -476 172v-4zM424 812q0 -214 192 -332l20 -8v64q-148 110 -148 272l4 240l-4 32h-60v-8zM508 792q0 -19 24 -64h4v4 l-8 96l4 200l-4 68h-4q-10 0 -12 -16zM520 504q86 -80 136 -80q20 6 20 40v24l-4 60l-16 -12v-84q0 -8 -12 -8zM744 332q47 -12 80 -12q48 0 48 44v904l-20 -12v-868q0 -44 -12 -44h-72q-24 -2 -24 -12zM768 364h64v884h-56l-8 -8v-876zM940 428l16 -4q105 34 208 168 q52 101 52 220v16l-4 268q-16 0 -16 -40h-4l4 -68v-180q0 -252 -240 -364q0 -8 -12 -8l-4 -4v-4zM960 520l8 -48q212 106 212 348l-8 260h-60v-32l4 -220q0 -208 -148 -284z" />
<glyph unicode="x" horiz-adv-x="1605" d="M0 776v36q0 427 396 688q187 104 396 104h40q370 0 628 -332q144 -214 144 -444v-52q0 -415 -408 -676q-186 -100 -368 -100h-52q-349 0 -608 308q-168 222 -168 468zM20 800q0 -96 40 -208h4v4q-24 83 -24 176v32q0 418 384 664q185 100 384 100q286 0 524 -208v4 q-211 224 -524 224q-428 0 -688 -392q-100 -174 -100 -356v-40zM64 580h4v8h-4v-8zM136 780q0 -354 364 -576q151 -68 300 -68q398 0 616 392q56 140 56 288q0 375 -380 592q-150 60 -252 60h-52q-375 0 -584 -364q-68 -141 -68 -296v-28zM196 792v28q0 302 300 508 q146 80 304 80h24q332 0 524 -332q64 -132 64 -280q0 -299 -292 -516q-146 -84 -308 -84h-12q-316 0 -528 304q-76 144 -76 292zM212 812q0 -63 32 -156h4v4q-12 51 -12 112v28q0 333 324 520q115 48 208 48h64q180 0 340 -128v4q-117 148 -368 148q-309 0 -512 -292 q-80 -150 -80 -288zM316 288q220 -192 464 -192h40q344 0 576 320q116 180 116 404q0 84 -28 180h-4v-4l8 -76v-112q0 -416 -396 -632q-135 -60 -284 -60q-251 0 -492 176v-4zM404 476l76 -12q56 0 56 64q0 105 132 200q12 23 12 52l-8 84q-12 0 -16 -44l4 -68 q-115 -86 -140 -184q-10 -80 -20 -80l-60 4l-36 -8v-8zM428 508h64q0 136 144 248l8 20l-8 68l4 4q-148 115 -148 252h-60v-4q0 -157 152 -288v-12q-156 -138 -156 -288zM516 1092q0 -32 24 -52l-12 76q-12 -4 -12 -24zM744 692l60 -12h32q40 0 40 60v32q0 77 -8 116h-8 l-4 -20v-40l-4 -120l-4 -4h-68l-36 -8v-4zM772 724h64v120l-4 28h-56l-4 -20v-128zM944 728l36 -32h4q-15 32 -40 32zM964 832l4 -72q144 -117 144 -244v-8h64q0 152 -152 288v12q0 11 76 84q76 98 76 208h-60q0 -100 -100 -212q-52 -27 -52 -56zM1052 808h24 q136 124 136 276v32l-16 -12q0 -155 -144 -296zM1088 476l68 -12q60 0 60 40l-16 108h-4v-116l-8 -8l-64 4q-36 -4 -36 -16z" />
<glyph unicode="y" horiz-adv-x="1605" d="M0 796v44q0 381 368 644q214 120 416 120h44q393 0 656 -372q120 -192 120 -416v-44q0 -407 -412 -676q-180 -96 -380 -96h-8q-437 0 -700 400q-104 193 -104 396zM20 796q0 -90 44 -212h4v4q-28 78 -28 208q0 495 480 720q152 52 284 52q293 0 524 -208v4 q-210 224 -524 224q-452 0 -708 -432q-76 -168 -76 -304v-56zM136 800q0 -414 412 -616q134 -48 240 -48h28q363 0 580 356q72 143 72 300v48q0 330 -352 556q-165 76 -304 76q-422 0 -628 -412q-48 -122 -48 -228v-32zM196 800v24q0 301 296 504q153 80 304 80h16 q333 0 532 -320q64 -135 64 -268v-48q0 -239 -220 -440q-163 -136 -380 -136q-327 0 -528 292q-84 146 -84 312zM216 808q0 -93 40 -180h4v4q-24 84 -24 160v36q0 302 312 484q131 60 256 60q216 0 396 -160v4q-157 176 -396 176q-286 0 -480 -244q-108 -156 -108 -340z M316 288q213 -192 492 -192q366 0 600 336q100 171 100 352v44q0 77 -24 180h-4v-4l12 -196q0 -356 -304 -576q-178 -116 -380 -116q-247 0 -492 176v-4zM428 1100q0 -110 92 -232q80 -71 116 -80v68q-144 97 -144 244h-64zM512 1092q9 -39 28 -52l-12 76q-16 -4 -16 -24z M524 816q92 -80 128 -80q21 0 24 40v28l-4 60l-16 -8v-88l-8 -8zM744 348l60 -8h28q44 0 44 52l-4 60v440q-7 0 -24 -28l4 -168v-324l-8 -8h-64l-36 -8v-8zM768 388l8 -8h56v492h-56l-8 -8v-476zM940 744l16 -4q126 36 208 176q48 92 48 180v20q-21 0 -28 -96 q-47 -153 -156 -224l-88 -48v-4zM964 836l4 -52q204 115 204 312v4h-60q0 -115 -96 -208q-52 -31 -52 -56zM1476 1012h4v8h-4v-8z" />
<glyph unicode="z" horiz-adv-x="1605" d="M0 760v44q0 466 444 724q179 76 360 76h32q375 0 648 -368q120 -191 120 -416q0 -531 -508 -764q-145 -56 -300 -56h-8q-452 0 -712 448q-76 158 -76 312zM16 800q0 -103 40 -200h4v4q-20 82 -20 160v40q0 411 368 656q185 104 380 104h28q283 0 504 -196v4 q-204 216 -512 216q-472 0 -720 -452q-72 -173 -72 -320v-16zM132 816q0 -447 440 -640q118 -40 216 -40h20q392 0 600 384q60 127 60 272q0 404 -372 616q-147 60 -268 60h-36q-379 0 -588 -360q-72 -148 -72 -292zM196 780v32q0 357 356 548q123 48 244 48q423 0 584 -416 q28 -104 28 -188q0 -361 -348 -552q-126 -56 -268 -56h-4q-305 0 -512 300q-80 129 -80 284zM212 816q0 -95 36 -168h4q-20 91 -20 148q0 303 264 488q132 84 288 84h32q203 0 376 -148v4q-155 164 -372 164h-44q-272 0 -456 -248q-108 -160 -108 -316v-8zM316 288 q225 -192 480 -192q381 0 612 336q100 170 100 352v20q0 89 -28 200h-4v-4q12 -94 12 -192q0 -439 -424 -640q-139 -52 -268 -52q-230 0 -480 176v-4zM400 744q0 -16 60 -16h660q64 0 64 48v4l-4 68h-12l-8 -36v-52l-8 -8h-724zM428 772h716v56l-8 8h-708v-64zM468 636 q110 -208 344 -208l268 4v56q0 8 -12 8l-248 -8q-179 0 -280 144l-24 8zM496 1084l60 -12l224 4q122 0 200 -60v4q-47 76 -188 76h-88l-152 -4l-40 4q-16 -6 -16 -12zM524 1116l28 -4l260 4q153 0 252 -144l16 -8l52 4v4q-53 111 -164 172q-88 36 -224 36l-220 -4v-60z M536 488q95 -100 284 -100h244q56 0 56 44v4l-4 72h-4q-16 0 -16 -48v-40l-8 -8l-256 -4q-148 0 -296 80zM1044 936q31 -12 56 -12h12q68 0 68 36v8q0 -19 -136 -24v-8zM1472 1008h4v12h-4v-12z" />
<glyph unicode="{" horiz-adv-x="684" />
<glyph unicode="|" horiz-adv-x="532" />
<glyph unicode="}" horiz-adv-x="684" />
<glyph unicode="~" horiz-adv-x="1196" />
<glyph unicode="&#xa1;" horiz-adv-x="682" />
<glyph unicode="&#xa2;" />
<glyph unicode="&#xa3;" />
<glyph unicode="&#xa4;" />
<glyph unicode="&#xa5;" />
<glyph unicode="&#xa6;" horiz-adv-x="532" />
<glyph unicode="&#xa7;" />
<glyph unicode="&#xa8;" horiz-adv-x="682" />
<glyph unicode="&#xa9;" horiz-adv-x="1509" />
<glyph unicode="&#xaa;" horiz-adv-x="758" />
<glyph unicode="&#xab;" />
<glyph unicode="&#xac;" horiz-adv-x="1196" />
<glyph unicode="&#xad;" horiz-adv-x="682" />
<glyph unicode="&#xae;" horiz-adv-x="1509" />
<glyph unicode="&#xaf;" horiz-adv-x="1131" />
<glyph unicode="&#xb0;" horiz-adv-x="819" />
<glyph unicode="&#xb1;" horiz-adv-x="1124" />
<glyph unicode="&#xb2;" horiz-adv-x="682" />
<glyph unicode="&#xb3;" horiz-adv-x="682" />
<glyph unicode="&#xb4;" horiz-adv-x="682" />
<glyph unicode="&#xb5;" horiz-adv-x="1180" />
<glyph unicode="&#xb6;" horiz-adv-x="1100" />
<glyph unicode="&#xb7;" horiz-adv-x="569" />
<glyph unicode="&#xb8;" horiz-adv-x="682" />
<glyph unicode="&#xb9;" horiz-adv-x="682" />
<glyph unicode="&#xba;" horiz-adv-x="748" />
<glyph unicode="&#xbb;" />
<glyph unicode="&#xbc;" horiz-adv-x="1708" />
<glyph unicode="&#xbd;" horiz-adv-x="1708" />
<glyph unicode="&#xbe;" horiz-adv-x="1708" />
<glyph unicode="&#xbf;" horiz-adv-x="1251" />
<glyph unicode="&#xc0;" horiz-adv-x="1366" />
<glyph unicode="&#xc1;" horiz-adv-x="1366" />
<glyph unicode="&#xc2;" horiz-adv-x="1366" />
<glyph unicode="&#xc3;" horiz-adv-x="1366" />
<glyph unicode="&#xc4;" horiz-adv-x="1366" />
<glyph unicode="&#xc5;" horiz-adv-x="1366" />
<glyph unicode="&#xc6;" horiz-adv-x="2048" />
<glyph unicode="&#xc7;" horiz-adv-x="1479" />
<glyph unicode="&#xc8;" horiz-adv-x="1366" />
<glyph unicode="&#xc9;" horiz-adv-x="1366" />
<glyph unicode="&#xca;" horiz-adv-x="1366" />
<glyph unicode="&#xcb;" horiz-adv-x="1366" />
<glyph unicode="&#xcc;" horiz-adv-x="569" />
<glyph unicode="&#xcd;" horiz-adv-x="569" />
<glyph unicode="&#xce;" horiz-adv-x="569" />
<glyph unicode="&#xcf;" horiz-adv-x="569" />
<glyph unicode="&#xd0;" horiz-adv-x="1479" />
<glyph unicode="&#xd1;" horiz-adv-x="1479" />
<glyph unicode="&#xd2;" horiz-adv-x="1593" />
<glyph unicode="&#xd3;" horiz-adv-x="1593" />
<glyph unicode="&#xd4;" horiz-adv-x="1593" />
<glyph unicode="&#xd5;" horiz-adv-x="1593" />
<glyph unicode="&#xd6;" horiz-adv-x="1593" />
<glyph unicode="&#xd7;" horiz-adv-x="1196" />
<glyph unicode="&#xd8;" horiz-adv-x="1593" />
<glyph unicode="&#xd9;" horiz-adv-x="1479" />
<glyph unicode="&#xda;" horiz-adv-x="1479" />
<glyph unicode="&#xdb;" horiz-adv-x="1479" />
<glyph unicode="&#xdc;" horiz-adv-x="1479" />
<glyph unicode="&#xdd;" horiz-adv-x="1366" />
<glyph unicode="&#xde;" horiz-adv-x="1366" />
<glyph unicode="&#xdf;" horiz-adv-x="1251" />
<glyph unicode="&#xe0;" />
<glyph unicode="&#xe1;" />
<glyph unicode="&#xe2;" />
<glyph unicode="&#xe3;" />
<glyph unicode="&#xe4;" />
<glyph unicode="&#xe5;" />
<glyph unicode="&#xe6;" horiz-adv-x="1821" />
<glyph unicode="&#xe7;" horiz-adv-x="1024" />
<glyph unicode="&#xe8;" />
<glyph unicode="&#xe9;" />
<glyph unicode="&#xea;" />
<glyph unicode="&#xeb;" />
<glyph unicode="&#xec;" horiz-adv-x="569" />
<glyph unicode="&#xed;" horiz-adv-x="569" />
<glyph unicode="&#xee;" horiz-adv-x="569" />
<glyph unicode="&#xef;" horiz-adv-x="569" />
<glyph unicode="&#xf0;" />
<glyph unicode="&#xf1;" />
<glyph unicode="&#xf2;" />
<glyph unicode="&#xf3;" />
<glyph unicode="&#xf4;" />
<glyph unicode="&#xf5;" />
<glyph unicode="&#xf6;" />
<glyph unicode="&#xf7;" horiz-adv-x="1124" />
<glyph unicode="&#xf8;" horiz-adv-x="1251" />
<glyph unicode="&#xf9;" />
<glyph unicode="&#xfa;" />
<glyph unicode="&#xfb;" />
<glyph unicode="&#xfc;" />
<glyph unicode="&#xfd;" horiz-adv-x="1024" />
<glyph unicode="&#xfe;" />
<glyph unicode="&#xff;" horiz-adv-x="1024" />
<glyph unicode="&#x152;" horiz-adv-x="2048" />
<glyph unicode="&#x153;" horiz-adv-x="1933" />
<glyph unicode="&#x178;" horiz-adv-x="1366" />
<glyph unicode="&#x2c6;" horiz-adv-x="682" />
<glyph unicode="&#x2dc;" horiz-adv-x="682" />
<glyph unicode="&#x2000;" horiz-adv-x="804" />
<glyph unicode="&#x2001;" horiz-adv-x="1608" />
<glyph unicode="&#x2002;" horiz-adv-x="804" />
<glyph unicode="&#x2003;" horiz-adv-x="1608" />
<glyph unicode="&#x2004;" horiz-adv-x="536" />
<glyph unicode="&#x2005;" horiz-adv-x="402" />
<glyph unicode="&#x2006;" horiz-adv-x="268" />
<glyph unicode="&#x2007;" horiz-adv-x="268" />
<glyph unicode="&#x2008;" horiz-adv-x="201" />
<glyph unicode="&#x2009;" horiz-adv-x="321" />
<glyph unicode="&#x200a;" horiz-adv-x="89" />
<glyph unicode="&#x2010;" horiz-adv-x="682" />
<glyph unicode="&#x2011;" horiz-adv-x="682" />
<glyph unicode="&#x2012;" horiz-adv-x="682" />
<glyph unicode="&#x2013;" />
<glyph unicode="&#x2014;" horiz-adv-x="2048" />
<glyph unicode="&#x2018;" horiz-adv-x="455" />
<glyph unicode="&#x2019;" horiz-adv-x="455" />
<glyph unicode="&#x201a;" horiz-adv-x="455" />
<glyph unicode="&#x201c;" horiz-adv-x="682" />
<glyph unicode="&#x201d;" horiz-adv-x="682" />
<glyph unicode="&#x201e;" horiz-adv-x="682" />
<glyph unicode="&#x2022;" horiz-adv-x="717" />
<glyph unicode="&#x2026;" horiz-adv-x="2048" />
<glyph unicode="&#x202f;" horiz-adv-x="321" />
<glyph unicode="&#x2039;" horiz-adv-x="682" />
<glyph unicode="&#x203a;" horiz-adv-x="682" />
<glyph unicode="&#x205f;" horiz-adv-x="402" />
<glyph unicode="&#x20ac;" />
<glyph unicode="&#x2122;" horiz-adv-x="2048" />
<glyph unicode="&#xe000;" horiz-adv-x="1605" d="M0 0v1605h1605v-1605h-1605z" />
</font>
</defs>
</svg>
